<svg id="svg" version="1.1" xmlns="http://www.w3.org/2000/svg" xmlns:xlink="http://www.w3.org/1999/xlink" width="400" height="534.020618556701" viewBox="0, 0, 400,534.020618556701"><g id="svgg"><path id="path0" d="M205.456 76.504 C 204.728 78.101,204.008 80.188,203.856 81.141 C 203.703 82.094,203.241 83.536,202.828 84.346 C 202.414 85.156,201.942 86.713,201.778 87.807 C 201.614 88.900,201.149 90.246,200.745 90.797 C 200.340 91.349,199.826 92.776,199.602 93.969 C 198.935 97.518,197.090 97.246,196.605 93.527 C 196.452 92.357,195.917 90.500,195.414 89.400 C 194.912 88.300,194.374 86.690,194.218 85.822 C 194.062 84.955,193.595 83.605,193.180 82.822 C 192.766 82.040,192.330 80.770,192.212 80.000 C 191.979 78.481,189.677 74.359,188.921 74.107 C 188.176 73.859,187.613 75.346,187.190 78.675 C 186.548 83.744,186.832 83.636,174.400 83.507 C 163.096 83.388,162.680 83.297,161.328 80.641 C 160.980 79.958,160.438 79.130,160.122 78.800 C 159.807 78.470,159.245 77.570,158.874 76.800 C 158.437 75.891,157.919 75.400,157.400 75.400 C 156.300 75.400,156.202 77.213,156.808 86.302 C 157.440 95.778,157.319 95.966,152.242 93.408 C 150.725 92.644,149.195 91.759,148.842 91.441 C 148.489 91.123,147.712 90.741,147.116 90.592 C 146.520 90.443,145.823 90.069,145.567 89.761 C 145.311 89.452,144.869 89.200,144.584 89.200 C 144.299 89.200,142.879 88.570,141.427 87.800 C 139.976 87.030,138.543 86.400,138.243 86.400 C 137.943 86.400,137.485 86.143,137.224 85.829 C 136.964 85.515,135.947 84.984,134.965 84.650 C 133.982 84.315,132.709 83.672,132.135 83.221 C 131.562 82.769,130.688 82.400,130.195 82.400 C 129.702 82.400,129.053 82.105,128.755 81.745 C 128.456 81.385,127.489 80.747,126.606 80.328 C 125.723 79.909,124.536 79.308,123.968 78.993 C 121.130 77.421,119.058 78.560,120.542 80.876 C 120.868 81.384,121.257 83.060,121.408 84.600 C 121.560 86.146,122.126 88.407,122.673 89.649 C 123.217 90.885,123.604 92.415,123.532 93.049 L 123.400 94.200 119.800 94.180 C 117.820 94.170,114.596 93.835,112.636 93.436 C 109.736 92.846,108.787 92.797,107.536 93.172 C 105.682 93.727,105.693 93.563,107.391 95.363 C 108.156 96.174,110.289 98.854,112.132 101.319 C 113.975 103.783,116.997 107.330,118.849 109.200 C 123.740 114.139,126.000 116.676,126.000 117.227 C 126.000 117.494,126.315 117.951,126.700 118.243 C 127.324 118.717,127.246 118.776,125.980 118.787 C 125.199 118.794,124.369 118.609,124.135 118.375 C 123.901 118.141,122.380 117.765,120.755 117.540 C 119.130 117.315,117.585 116.953,117.323 116.735 C 117.060 116.518,115.917 116.095,114.782 115.795 C 113.648 115.496,112.408 114.969,112.027 114.624 C 111.646 114.280,110.286 113.804,109.005 113.567 C 107.723 113.330,106.298 112.899,105.837 112.608 C 105.377 112.317,104.035 111.879,102.857 111.635 C 101.678 111.390,100.259 110.832,99.703 110.395 C 99.147 109.958,98.111 109.600,97.400 109.600 C 96.689 109.600,95.623 109.219,95.031 108.753 C 94.438 108.287,93.379 107.759,92.677 107.580 C 91.974 107.401,90.612 106.965,89.649 106.612 C 87.837 105.946,87.103 106.063,87.927 106.887 C 88.187 107.147,88.400 107.754,88.400 108.235 C 88.400 109.026,90.306 113.713,91.231 115.200 C 92.079 116.561,92.057 116.897,91.054 117.944 C 89.599 119.462,86.217 119.947,75.800 120.131 C 68.552 120.258,67.118 120.389,65.343 121.085 C 63.850 121.670,62.717 121.836,61.216 121.692 C 59.935 121.569,58.784 121.687,58.194 122.003 L 57.241 122.513 58.015 124.029 C 58.440 124.863,58.958 125.650,59.165 125.778 C 59.372 125.906,59.757 126.684,60.020 127.506 C 60.283 128.328,60.850 129.386,61.279 129.857 C 62.116 130.778,63.275 132.737,64.007 134.474 C 64.256 135.064,64.874 135.818,65.379 136.150 C 67.347 137.439,64.841 141.014,60.017 143.800 C 58.874 144.460,56.989 145.765,55.829 146.700 C 54.668 147.635,53.523 148.400,53.284 148.400 C 53.044 148.400,52.017 149.120,51.000 150.000 C 49.983 150.880,48.892 151.600,48.576 151.600 C 48.259 151.600,48.000 151.750,48.000 151.932 C 48.000 152.115,47.535 152.514,46.966 152.818 C 46.398 153.122,45.573 153.876,45.134 154.493 L 44.336 155.614 46.168 159.355 C 47.176 161.413,48.000 163.294,48.000 163.534 C 48.000 163.775,48.339 164.153,48.753 164.375 C 49.181 164.604,49.628 165.433,49.787 166.289 C 49.941 167.120,50.592 168.596,51.233 169.569 C 51.875 170.541,52.400 171.494,52.400 171.686 C 52.400 171.878,53.118 173.140,53.996 174.490 C 55.053 176.117,55.680 177.610,55.852 178.910 C 56.009 180.088,56.490 181.321,57.056 181.994 C 57.575 182.611,58.006 183.270,58.014 183.458 C 58.021 183.646,58.375 184.520,58.800 185.400 C 60.074 188.037,59.467 191.079,56.593 196.459 C 56.047 197.481,55.600 198.674,55.600 199.110 C 55.600 199.546,55.340 200.118,55.022 200.382 C 54.704 200.646,54.154 201.734,53.800 202.800 C 53.446 203.866,52.915 204.939,52.620 205.183 C 52.325 205.428,51.962 206.277,51.813 207.069 C 51.665 207.861,51.202 208.980,50.786 209.555 C 50.369 210.130,49.854 211.396,49.641 212.369 C 49.428 213.342,48.979 214.292,48.643 214.480 C 48.307 214.668,47.915 215.492,47.771 216.311 C 47.628 217.130,47.220 218.250,46.865 218.800 C 46.182 219.859,44.714 223.138,43.730 225.800 C 43.404 226.680,42.873 227.694,42.550 228.053 C 42.226 228.412,41.772 229.402,41.541 230.253 C 41.310 231.104,40.894 232.070,40.617 232.400 C 38.815 234.549,39.395 237.600,41.606 237.600 C 42.124 237.600,42.979 238.005,43.506 238.500 C 44.369 239.311,44.905 239.407,48.932 239.475 C 51.389 239.517,54.163 239.722,55.096 239.932 L 56.793 240.313 57.226 238.704 C 58.248 234.906,58.542 234.856,63.217 237.680 C 64.216 238.283,65.836 239.057,66.817 239.399 C 69.334 240.278,74.015 242.739,75.200 243.807 C 75.750 244.303,76.740 244.981,77.401 245.313 C 78.061 245.646,78.944 246.297,79.363 246.759 C 79.782 247.222,80.555 247.600,81.082 247.600 C 82.455 247.600,84.009 248.508,85.466 250.163 C 86.482 251.317,87.018 251.600,88.186 251.600 C 91.290 251.600,93.070 253.685,91.559 255.551 C 91.170 256.031,90.376 257.904,89.794 259.712 C 89.212 261.520,88.300 263.460,87.768 264.022 C 87.236 264.584,86.800 265.372,86.800 265.773 C 86.800 266.174,86.274 267.425,85.632 268.551 C 83.018 273.135,80.665 279.303,80.488 282.039 C 80.308 284.815,80.335 284.899,83.829 292.240 C 84.363 293.362,84.800 294.729,84.800 295.278 C 84.800 295.827,85.160 296.602,85.600 297.000 C 86.080 297.434,86.400 298.232,86.400 298.992 C 86.400 299.818,86.739 300.579,87.372 301.174 C 87.947 301.714,88.453 302.765,88.610 303.744 C 88.756 304.655,89.219 305.995,89.638 306.723 C 90.057 307.450,90.400 308.232,90.400 308.460 C 90.400 309.367,91.855 310.737,92.431 310.372 C 92.744 310.174,93.563 310.009,94.251 310.006 C 95.595 310.000,98.196 309.054,98.580 308.433 C 98.709 308.224,99.812 307.847,101.032 307.593 C 102.253 307.340,103.346 306.885,103.462 306.582 C 103.591 306.248,104.606 305.926,106.050 305.762 C 107.358 305.615,108.833 305.175,109.328 304.785 C 109.823 304.396,111.032 303.863,112.014 303.602 C 112.996 303.341,114.361 302.783,115.047 302.363 C 115.739 301.940,117.023 301.600,117.932 301.600 C 119.008 301.600,119.814 301.344,120.284 300.853 C 120.678 300.442,121.630 299.992,122.400 299.852 C 123.170 299.712,124.880 299.059,126.200 298.400 C 127.579 297.712,129.238 297.202,130.100 297.202 C 131.038 297.201,131.884 296.916,132.359 296.441 C 134.189 294.611,136.564 295.117,134.787 296.958 C 132.760 299.059,131.600 300.457,131.600 300.800 C 131.600 301.143,130.440 302.541,128.413 304.642 C 127.966 305.105,127.600 305.611,127.600 305.765 C 127.600 305.920,126.811 306.824,125.847 307.774 C 124.883 308.725,123.930 309.795,123.730 310.153 C 123.530 310.511,121.978 312.320,120.283 314.173 C 118.587 316.026,117.200 317.724,117.200 317.948 C 117.200 318.172,116.819 318.621,116.354 318.947 C 115.889 319.273,115.182 320.076,114.783 320.731 C 114.385 321.387,112.876 323.177,111.429 324.710 C 109.983 326.243,108.800 327.702,108.800 327.951 C 108.800 328.201,108.350 328.797,107.800 329.275 C 107.250 329.753,106.800 330.318,106.800 330.530 C 106.800 330.742,106.427 331.295,105.971 331.758 C 104.241 333.515,100.400 338.454,100.400 338.920 C 100.400 339.188,100.040 339.632,99.600 339.907 C 99.160 340.182,98.800 340.630,98.800 340.903 C 98.799 341.177,98.330 341.940,97.758 342.600 C 97.185 343.260,96.555 344.160,96.357 344.600 C 96.159 345.040,95.368 346.210,94.599 347.200 C 93.829 348.190,92.885 349.624,92.500 350.388 C 92.115 351.151,91.490 352.091,91.110 352.477 C 90.731 352.864,90.306 353.634,90.167 354.190 C 90.003 354.841,89.634 355.200,89.128 355.200 C 87.872 355.200,79.373 360.546,78.002 362.198 C 77.727 362.529,77.000 362.800,76.387 362.800 C 75.651 362.800,74.944 363.189,74.310 363.943 C 73.781 364.571,72.890 365.336,72.330 365.643 C 69.530 367.175,67.689 368.667,65.100 371.501 C 64.378 372.291,64.126 374.400,64.754 374.400 C 64.949 374.400,65.403 373.950,65.763 373.400 C 66.219 372.705,66.781 372.400,67.606 372.400 C 68.347 372.400,69.483 371.874,70.627 371.000 C 71.636 370.230,72.762 369.598,73.131 369.595 C 73.499 369.592,74.178 369.488,74.640 369.363 C 75.983 369.003,76.677 370.105,76.979 373.080 C 77.130 374.576,77.458 376.385,77.708 377.100 C 78.052 378.089,78.046 378.514,77.680 378.880 C 76.969 379.591,77.097 380.839,77.978 381.776 C 78.693 382.537,78.719 382.834,78.311 385.471 C 77.683 389.532,78.262 390.400,81.601 390.400 C 84.474 390.400,86.915 389.523,88.800 387.813 C 91.360 385.490,97.998 381.904,98.809 382.405 C 99.653 382.927,99.473 386.248,98.543 387.303 C 98.108 387.796,97.534 388.650,97.268 389.200 C 96.712 390.346,95.190 392.544,93.949 393.990 C 92.922 395.187,93.103 399.361,94.356 403.400 C 94.766 404.720,95.229 407.198,95.385 408.906 C 95.541 410.615,95.902 412.245,96.186 412.529 C 96.471 412.814,96.829 414.386,96.983 416.023 C 97.522 421.754,98.757 423.977,101.400 423.973 C 102.912 423.971,103.400 423.676,108.021 419.968 C 116.576 413.104,118.401 413.787,119.867 424.400 C 120.187 426.710,120.699 429.500,121.006 430.600 C 121.314 431.700,121.756 434.378,121.990 436.551 C 122.224 438.724,122.680 440.974,123.005 441.551 C 123.329 442.128,123.771 443.095,123.987 443.700 C 124.569 445.327,127.777 445.311,129.686 443.672 C 133.051 440.782,133.046 440.781,136.632 444.029 C 138.968 446.145,139.391 446.297,140.611 445.457 C 141.045 445.158,142.068 444.791,142.884 444.642 C 144.095 444.420,144.939 443.733,147.484 440.896 C 149.198 438.985,151.629 436.451,152.887 435.265 C 154.146 434.079,155.283 432.769,155.414 432.355 C 155.546 431.940,155.996 431.600,156.413 431.600 C 156.831 431.600,157.763 431.083,158.486 430.451 C 160.242 428.916,163.177 430.381,164.794 433.600 C 165.392 434.789,170.656 443.782,171.565 445.167 C 172.940 447.262,174.438 449.879,175.177 451.477 C 176.253 453.805,178.050 454.744,179.483 453.726 C 180.046 453.327,180.823 452.813,181.210 452.584 C 182.693 451.709,183.344 450.934,185.045 448.014 C 189.626 440.151,193.683 438.450,195.374 443.684 C 196.088 445.891,200.800 447.400,200.800 445.421 C 200.800 444.557,203.312 442.088,204.492 441.791 C 205.069 441.647,205.852 441.184,206.233 440.764 C 207.118 439.786,207.454 439.800,207.724 440.830 C 207.843 441.286,208.314 441.757,208.770 441.876 C 209.227 441.996,209.600 442.359,209.600 442.683 C 209.600 443.348,210.855 445.131,212.500 446.803 C 213.105 447.418,213.600 448.057,213.600 448.223 C 213.600 448.389,214.442 449.757,215.471 451.262 C 217.908 454.829,220.005 455.191,221.904 452.374 C 222.507 451.480,223.675 450.054,224.500 449.205 C 225.325 448.357,226.000 447.477,226.000 447.249 C 226.000 447.021,226.505 445.972,227.123 444.918 C 227.741 443.863,228.563 442.202,228.949 441.227 C 229.336 440.251,230.075 438.951,230.592 438.336 C 231.109 437.722,231.644 436.710,231.781 436.087 C 231.922 435.442,232.512 434.670,233.151 434.292 C 233.768 433.928,234.706 432.813,235.236 431.815 C 236.221 429.957,236.612 429.778,239.200 429.996 C 240.404 430.097,242.915 432.212,248.000 437.409 C 255.312 444.881,256.505 446.000,257.150 445.994 C 258.758 445.979,261.171 444.899,262.121 443.769 C 264.283 441.196,268.030 441.127,270.335 443.616 C 272.702 446.171,275.031 443.090,276.203 435.853 C 276.509 433.958,276.952 431.731,277.186 430.904 C 277.420 430.077,277.886 427.463,278.222 425.095 C 278.946 419.988,279.767 417.926,281.885 415.889 C 283.921 413.931,284.534 414.167,290.015 419.017 C 296.848 425.062,299.937 425.258,300.629 419.693 C 300.786 418.432,301.249 416.427,301.657 415.237 C 302.066 414.048,302.400 412.402,302.400 411.580 C 302.400 410.757,302.782 408.850,303.249 407.342 C 304.769 402.436,303.430 394.098,300.670 391.272 C 299.861 390.444,299.200 389.576,299.200 389.343 C 299.200 389.110,298.646 388.155,297.968 387.220 C 296.435 385.103,296.066 383.169,296.942 381.833 L 297.586 380.850 300.043 381.849 C 302.691 382.925,303.959 383.646,305.731 385.083 C 306.353 385.587,307.153 386.000,307.509 386.000 C 307.865 386.000,308.616 386.416,309.178 386.925 C 315.463 392.616,319.286 392.310,319.159 386.125 C 319.127 384.589,319.280 382.987,319.499 382.566 C 320.014 381.572,321.070 376.449,321.377 373.458 C 321.722 370.089,322.078 369.600,324.186 369.600 C 327.774 369.600,327.530 366.986,323.792 365.384 C 323.127 365.099,322.254 364.501,321.850 364.056 C 321.447 363.610,320.551 363.123,319.859 362.973 C 319.166 362.823,316.890 361.409,314.800 359.830 C 310.387 356.498,308.626 355.403,307.100 355.044 C 306.495 354.901,306.000 354.543,306.000 354.247 C 306.000 353.952,305.460 353.031,304.800 352.200 C 304.140 351.369,303.600 350.445,303.600 350.145 C 303.600 349.845,303.254 349.254,302.830 348.830 C 302.407 348.407,301.842 347.642,301.575 347.130 C 301.308 346.619,300.839 345.930,300.533 345.600 C 299.715 344.717,298.091 342.347,297.517 341.200 C 297.242 340.650,296.786 340.055,296.505 339.878 C 296.223 339.701,295.743 338.981,295.437 338.278 C 295.132 337.575,294.054 336.152,293.041 335.115 C 292.029 334.078,291.200 333.053,291.200 332.837 C 291.200 332.622,290.818 332.178,290.351 331.851 C 289.884 331.523,289.299 330.909,289.051 330.485 C 287.819 328.380,286.127 326.049,284.844 324.692 C 284.060 323.862,283.235 322.863,283.010 322.471 C 282.784 322.080,281.854 320.959,280.942 319.980 C 277.900 316.713,275.379 313.815,274.262 312.298 C 273.654 311.472,272.536 310.194,271.778 309.458 C 271.020 308.721,270.396 307.957,270.392 307.760 C 270.388 307.562,269.578 306.599,268.592 305.620 C 267.606 304.642,266.800 303.701,266.800 303.531 C 266.800 303.138,262.138 297.618,261.077 296.755 C 259.178 295.208,261.828 294.913,264.000 296.430 C 264.550 296.814,265.882 297.249,266.960 297.398 C 268.038 297.546,269.748 298.088,270.760 298.603 C 273.183 299.835,277.835 301.597,278.708 301.613 C 279.089 301.619,280.300 302.068,281.400 302.609 C 282.500 303.150,283.673 303.594,284.006 303.596 C 284.339 303.598,285.309 303.973,286.160 304.430 C 287.012 304.886,288.678 305.417,289.863 305.610 C 291.048 305.803,292.284 306.227,292.609 306.552 C 292.935 306.877,294.155 307.342,295.322 307.584 C 296.494 307.827,297.745 308.377,298.118 308.812 C 298.595 309.370,299.296 309.600,300.520 309.600 C 301.470 309.600,302.596 309.864,303.024 310.187 C 304.236 311.104,304.700 310.918,305.227 309.300 C 305.496 308.475,306.030 307.397,306.413 306.903 C 306.796 306.410,307.233 305.351,307.383 304.549 C 307.534 303.747,308.009 302.614,308.439 302.032 C 308.870 301.450,309.334 300.286,309.470 299.446 C 309.606 298.606,310.141 297.495,310.659 296.977 C 311.177 296.460,311.600 295.686,311.600 295.258 C 311.600 294.830,312.048 293.517,312.596 292.340 C 313.144 291.163,313.594 289.929,313.596 289.597 C 313.598 289.265,314.088 288.095,314.683 286.997 C 316.920 282.875,316.435 280.583,311.100 270.062 C 310.055 268.001,309.200 266.040,309.200 265.705 C 309.200 265.369,308.862 264.533,308.449 263.847 C 308.035 263.161,307.482 261.926,307.219 261.103 C 306.733 259.585,305.037 256.183,304.344 255.338 C 303.187 253.927,305.246 251.600,307.653 251.600 C 309.029 251.600,312.524 249.418,313.389 248.018 C 313.531 247.788,314.163 247.600,314.793 247.600 C 315.431 247.600,316.465 247.157,317.127 246.600 C 317.781 246.050,318.482 245.600,318.686 245.600 C 318.889 245.600,319.789 244.973,320.685 244.206 C 321.581 243.439,323.638 242.166,325.257 241.376 C 326.876 240.587,329.190 239.459,330.400 238.870 C 331.610 238.282,333.050 237.511,333.600 237.157 C 336.213 235.477,338.797 236.035,338.800 238.280 C 338.801 239.778,341.393 240.810,343.665 240.218 C 345.049 239.858,347.487 239.674,350.233 239.723 C 357.406 239.850,358.629 238.548,356.385 233.178 C 355.701 231.540,354.971 229.634,354.763 228.943 C 354.556 228.252,354.129 227.473,353.814 227.211 C 353.499 226.950,353.029 226.075,352.770 225.268 C 352.206 223.509,350.669 219.964,349.585 217.921 C 349.153 217.107,348.800 216.186,348.800 215.875 C 348.800 215.563,348.425 214.831,347.966 214.248 C 347.507 213.665,346.952 212.515,346.732 211.694 C 346.232 209.828,343.869 204.831,342.607 202.972 C 342.085 202.203,341.538 201.027,341.391 200.360 C 341.245 199.692,340.873 198.663,340.565 198.073 C 340.257 197.483,340.004 196.768,340.002 196.484 C 340.001 196.200,339.640 195.262,339.200 194.400 C 337.865 191.783,338.511 187.713,340.978 183.200 C 342.220 180.929,342.782 179.700,343.427 177.846 C 343.801 176.772,344.416 175.584,344.793 175.207 C 345.171 174.829,345.685 173.930,345.937 173.209 C 346.188 172.489,346.956 170.985,347.643 169.868 C 348.331 168.751,349.133 167.158,349.425 166.328 C 349.718 165.499,350.401 164.167,350.944 163.369 C 351.773 162.148,351.865 161.733,351.526 160.759 C 351.247 159.959,351.258 159.210,351.561 158.340 C 352.337 156.113,352.105 155.417,349.900 153.360 C 348.745 152.282,347.305 151.184,346.700 150.919 C 346.095 150.655,345.600 150.174,345.600 149.851 C 345.600 149.528,345.105 149.154,344.500 149.020 C 343.895 148.886,342.891 148.377,342.269 147.888 C 341.646 147.400,340.656 146.620,340.069 146.156 C 339.481 145.692,338.460 145.027,337.800 144.678 C 333.649 142.483,331.731 139.358,333.200 137.184 C 333.640 136.533,334.339 135.496,334.752 134.880 C 336.770 131.879,337.777 129.324,338.016 126.600 C 338.151 125.060,338.394 123.506,338.555 123.148 C 338.939 122.295,337.042 121.607,334.240 121.582 C 333.118 121.573,331.480 121.296,330.600 120.968 C 329.465 120.544,326.211 120.271,319.400 120.029 C 314.113 119.842,309.252 119.484,308.579 119.233 C 306.417 118.426,305.146 114.807,306.600 113.600 C 306.930 113.326,307.200 112.698,307.200 112.203 C 307.200 111.709,307.562 110.172,308.004 108.789 C 308.856 106.122,308.785 105.569,307.682 106.253 C 307.307 106.486,306.064 106.900,304.921 107.173 C 303.777 107.446,302.373 108.104,301.800 108.635 C 301.042 109.338,300.300 109.600,299.073 109.600 C 298.118 109.600,296.700 109.969,295.798 110.452 C 294.061 111.383,291.003 112.508,287.649 113.448 C 286.466 113.780,285.026 114.383,284.449 114.787 C 283.872 115.192,282.410 115.641,281.200 115.785 C 279.990 115.930,278.556 116.337,278.012 116.691 C 276.974 117.366,274.104 117.559,273.220 117.012 C 272.830 116.771,273.004 116.381,273.921 115.446 C 274.592 114.761,276.201 113.120,277.496 111.800 C 278.790 110.480,280.333 109.077,280.925 108.681 C 281.516 108.286,282.000 107.645,282.000 107.258 C 282.000 106.870,282.900 105.619,284.000 104.478 C 285.294 103.135,286.000 102.056,286.000 101.420 C 286.000 99.941,286.772 98.425,288.706 96.105 C 291.354 92.930,289.514 92.041,283.520 93.599 C 277.454 95.176,273.722 93.842,274.735 90.459 C 274.991 89.605,275.200 87.359,275.200 85.467 C 275.200 83.060,275.403 81.600,275.878 80.606 C 277.166 77.905,274.801 77.390,271.538 79.661 C 270.954 80.068,270.203 80.400,269.869 80.400 C 269.535 80.400,268.727 80.850,268.073 81.400 C 267.419 81.950,266.540 82.400,266.120 82.400 C 265.699 82.400,264.745 82.850,264.000 83.400 C 263.255 83.950,262.435 84.400,262.178 84.400 C 261.922 84.400,261.049 84.850,260.238 85.400 C 259.428 85.950,258.558 86.400,258.305 86.400 C 257.813 86.400,248.157 91.080,247.271 91.747 C 246.297 92.482,242.211 93.996,241.200 93.998 L 240.200 94.000 240.062 85.973 C 239.966 80.330,240.068 77.601,240.408 76.781 C 240.673 76.140,240.780 75.176,240.645 74.638 L 240.400 73.661 239.100 74.931 C 238.385 75.629,237.440 76.862,237.000 77.671 C 233.530 84.050,234.570 83.649,221.689 83.563 L 211.400 83.495 210.481 82.362 C 209.933 81.685,209.327 80.055,208.976 78.314 C 207.839 72.667,207.325 72.403,205.456 76.504 M173.571 187.437 C 175.367 188.590,179.312 191.585,182.529 194.237 L 185.000 196.274 184.858 198.637 C 184.699 201.307,184.323 202.244,183.280 202.575 C 182.884 202.700,182.346 203.393,182.086 204.113 C 181.406 205.994,178.125 210.369,177.084 210.784 C 175.774 211.307,173.988 213.410,173.570 214.923 C 173.309 215.868,172.800 216.442,171.802 216.919 C 171.031 217.286,170.389 217.815,170.375 218.094 C 170.361 218.372,170.203 218.240,170.025 217.800 C 168.847 214.891,169.130 206.002,170.437 204.854 C 170.847 204.494,172.053 203.480,173.117 202.600 C 176.083 200.147,176.628 199.315,175.838 198.442 C 175.487 198.054,175.200 197.098,175.200 196.317 C 175.200 193.970,173.440 193.272,169.968 194.243 C 168.077 194.772,167.466 194.789,165.968 194.352 C 164.996 194.068,163.110 193.890,161.777 193.954 C 158.109 194.133,152.821 191.845,154.053 190.613 C 154.314 190.353,162.231 188.800,163.298 188.800 C 163.759 188.800,164.484 188.485,164.907 188.100 C 166.995 186.202,171.151 185.884,173.571 187.437 M231.519 188.110 C 232.436 188.919,234.270 189.286,238.800 189.565 C 243.494 189.855,244.109 190.791,240.540 192.214 C 239.408 192.666,238.220 193.251,237.902 193.515 C 237.004 194.260,235.072 194.513,233.529 194.087 C 232.493 193.801,231.776 193.846,230.791 194.261 C 229.594 194.764,229.177 194.736,226.756 193.986 C 223.444 192.961,221.923 193.470,220.958 195.927 C 220.640 196.737,220.204 197.713,219.990 198.095 C 219.096 199.686,220.706 202.800,222.422 202.800 C 225.688 202.800,226.476 204.201,226.696 210.400 C 226.940 217.284,225.594 219.607,223.458 215.990 C 223.087 215.362,222.472 214.750,222.092 214.629 C 221.711 214.508,220.904 213.642,220.297 212.705 C 218.960 210.638,216.129 206.888,214.908 205.566 C 211.185 201.535,211.279 201.692,211.140 199.283 C 211.008 196.995,211.025 196.957,212.776 195.386 C 219.637 189.235,222.330 187.282,224.600 186.813 C 226.151 186.493,230.638 187.334,231.519 188.110 M154.000 196.920 C 154.000 199.203,153.051 200.000,150.335 200.000 C 149.130 200.000,148.175 202.465,148.611 204.451 C 148.818 205.395,148.676 205.824,147.920 206.524 C 146.604 207.744,145.599 213.770,146.553 214.724 C 147.102 215.273,147.464 215.244,150.082 214.436 C 156.759 212.378,159.200 212.312,159.200 214.189 C 159.200 214.748,159.489 215.229,159.900 215.354 C 160.285 215.471,159.991 215.512,159.247 215.445 C 157.153 215.256,154.376 215.910,152.816 216.960 C 152.037 217.484,150.750 218.026,149.955 218.164 C 149.160 218.303,148.203 218.754,147.829 219.168 C 147.454 219.582,146.535 220.036,145.787 220.176 C 145.038 220.317,144.163 220.694,143.842 221.015 C 142.638 222.219,140.296 221.230,139.816 219.315 L 139.400 217.659 138.274 218.633 L 137.147 219.607 137.987 220.675 C 138.683 221.559,138.780 222.057,138.554 223.565 C 138.404 224.567,138.263 226.020,138.241 226.794 C 138.201 228.177,138.170 228.202,136.333 228.321 C 134.898 228.413,134.324 228.657,133.855 229.372 C 133.151 230.447,130.946 230.957,130.624 230.119 C 130.511 229.824,130.774 229.226,131.209 228.791 C 131.644 228.356,132.000 227.577,132.000 227.060 C 132.000 225.894,132.751 223.602,133.396 222.800 C 133.661 222.470,134.109 221.345,134.391 220.300 C 134.673 219.255,135.032 218.400,135.188 218.400 C 135.711 218.400,136.400 216.378,136.400 214.843 C 136.400 213.824,136.668 213.082,137.213 212.588 C 137.660 212.184,138.210 211.119,138.436 210.221 C 138.752 208.969,139.816 207.569,143.020 204.195 C 145.315 201.778,147.195 199.604,147.197 199.364 C 147.199 199.125,147.636 198.730,148.169 198.487 C 148.702 198.244,149.197 197.645,149.269 197.155 C 149.383 196.380,152.002 195.006,153.700 194.831 C 153.865 194.814,154.000 195.754,154.000 196.920 M246.988 196.745 C 247.136 197.418,247.643 198.074,248.220 198.336 C 248.759 198.582,249.200 199.015,249.200 199.299 C 249.200 199.900,252.224 203.435,254.741 205.777 C 256.618 207.524,257.600 209.095,257.600 210.349 C 257.600 210.783,258.033 211.653,258.562 212.282 C 259.135 212.963,259.642 214.232,259.814 215.413 C 259.974 216.515,260.436 217.719,260.851 218.116 C 261.263 218.509,261.600 219.157,261.600 219.556 C 261.600 219.955,262.050 221.127,262.600 222.162 C 263.150 223.196,263.600 224.240,263.600 224.483 C 263.600 224.725,264.061 225.897,264.624 227.088 C 266.212 230.445,264.943 231.717,262.044 229.674 C 260.482 228.573,260.250 228.458,259.100 228.216 C 258.101 228.006,258.000 227.823,258.000 226.216 C 258.000 225.243,257.820 224.336,257.600 224.200 C 256.979 223.816,257.128 221.681,257.853 220.576 C 258.461 219.647,258.457 219.526,257.791 218.790 C 256.806 217.701,256.528 217.789,255.957 219.369 C 255.489 220.662,252.400 222.229,252.400 221.174 C 252.400 220.986,251.635 220.614,250.700 220.348 C 249.765 220.082,248.640 219.546,248.200 219.156 C 247.760 218.767,246.622 218.274,245.670 218.060 C 244.719 217.847,243.729 217.415,243.470 217.101 C 242.143 215.489,238.694 214.307,237.780 215.151 C 237.571 215.344,236.471 215.803,235.335 216.171 C 234.199 216.540,233.169 217.105,233.045 217.427 C 232.922 217.749,232.363 218.186,231.803 218.399 C 231.243 218.612,230.615 219.235,230.406 219.785 C 230.153 220.451,229.821 220.706,229.413 220.550 C 228.094 220.044,228.935 217.759,230.748 216.921 C 231.546 216.552,232.630 215.834,233.155 215.325 C 233.693 214.804,234.600 214.400,235.235 214.400 C 235.890 214.400,236.524 214.108,236.753 213.700 C 237.215 212.879,241.967 212.743,242.908 213.524 C 243.622 214.116,248.321 215.205,249.014 214.939 C 250.386 214.413,249.838 207.875,248.321 206.660 C 247.384 205.911,247.274 205.592,247.464 204.186 C 247.765 201.963,246.765 199.602,245.520 199.595 C 243.593 199.583,242.800 199.143,242.800 198.085 C 242.800 195.622,246.482 194.443,246.988 196.745 M158.800 202.812 C 159.305 203.149,159.211 203.386,158.200 204.315 C 157.540 204.922,156.681 205.910,156.291 206.509 C 154.550 209.187,151.582 207.099,152.892 204.119 C 153.650 202.394,157.046 201.643,158.800 202.812 M241.984 202.792 C 243.795 203.761,243.755 207.200,241.933 207.200 C 241.080 207.200,237.600 204.054,237.600 203.282 C 237.600 202.483,240.749 202.130,241.984 202.792 M82.513 206.781 C 84.578 206.982,85.791 207.295,86.113 207.710 C 86.405 208.084,87.798 208.516,89.583 208.784 C 93.708 209.405,93.784 209.755,90.162 211.470 C 88.973 212.033,88.000 212.619,88.000 212.773 C 88.000 212.927,87.280 213.457,86.401 213.952 C 85.521 214.446,84.615 215.199,84.386 215.625 C 84.158 216.051,83.663 216.403,83.286 216.407 C 81.990 216.419,79.460 218.202,78.206 219.987 C 77.326 221.240,76.225 222.136,74.520 222.987 C 73.183 223.654,71.340 224.883,70.423 225.718 C 69.507 226.553,68.311 227.440,67.766 227.688 C 67.222 227.936,66.450 228.873,66.053 229.770 C 65.136 231.837,64.418 232.420,62.468 232.682 C 60.328 232.969,59.971 232.229,61.553 230.784 C 62.239 230.158,62.800 229.309,62.800 228.897 C 62.800 228.486,63.336 227.636,63.991 227.009 C 64.667 226.361,65.443 224.988,65.787 223.834 C 66.518 221.378,66.699 221.116,68.076 220.512 C 69.279 219.983,72.124 215.251,72.831 212.600 C 73.998 208.228,76.089 205.736,78.194 206.208 C 78.857 206.357,80.801 206.615,82.513 206.781 M319.851 206.514 C 321.362 207.378,322.676 209.344,323.382 211.800 C 323.761 213.120,324.289 214.470,324.555 214.800 C 324.821 215.130,325.450 216.300,325.953 217.400 C 326.476 218.544,327.394 219.742,328.099 220.200 C 329.471 221.091,329.475 221.097,331.221 224.957 C 333.050 228.998,333.207 230.400,331.832 230.400 C 330.985 230.400,330.637 230.107,330.176 229.004 C 329.796 228.095,329.140 227.418,328.296 227.064 C 327.583 226.766,326.431 226.041,325.735 225.455 C 325.039 224.868,323.502 223.944,322.318 223.403 C 319.988 222.336,318.460 220.930,317.447 218.922 C 316.772 217.584,313.640 215.277,311.001 214.174 C 310.148 213.818,308.899 213.122,308.225 212.627 C 307.551 212.133,306.428 211.503,305.729 211.227 C 302.724 210.044,302.883 209.360,306.289 208.817 C 308.000 208.545,309.708 208.047,310.085 207.712 C 310.493 207.350,312.093 206.969,314.029 206.774 C 315.822 206.593,317.388 206.345,317.511 206.223 C 317.873 205.861,318.939 205.993,319.851 206.514 M311.604 210.995 C 311.205 211.476,311.230 211.637,311.736 211.831 C 312.580 212.155,313.217 211.709,312.940 210.987 C 312.653 210.240,312.229 210.242,311.604 210.995 M138.643 214.632 C 138.357 215.377,138.750 217.200,139.197 217.200 C 139.367 217.200,139.580 216.795,139.669 216.300 C 139.999 214.466,139.203 213.172,138.643 214.632 M256.157 215.029 C 255.849 216.257,256.552 217.208,257.251 216.509 C 257.759 216.001,257.399 214.000,256.800 214.000 C 256.588 214.000,256.299 214.463,256.157 215.029 M165.250 216.700 C 166.295 217.184,166.839 217.737,167.011 218.490 C 167.451 220.423,166.321 221.143,165.540 219.427 C 165.296 218.892,164.600 218.248,163.993 217.997 C 163.188 217.664,162.945 217.333,163.092 216.770 C 163.338 215.831,163.370 215.830,165.250 216.700 M171.508 223.108 C 172.227 224.589,172.812 226.011,172.808 226.269 C 172.804 226.527,173.229 227.249,173.754 227.873 C 175.109 229.483,176.063 231.928,175.651 232.736 C 175.465 233.101,175.195 234.018,175.052 234.774 C 174.908 235.529,174.553 236.429,174.263 236.774 C 173.973 237.118,173.406 238.293,173.002 239.385 C 172.358 241.129,172.216 241.280,171.834 240.624 C 171.595 240.213,170.936 239.319,170.369 238.638 C 167.789 235.541,167.162 232.917,168.243 229.734 C 168.693 228.409,168.800 227.294,168.599 226.020 C 168.101 222.857,168.208 221.529,169.009 220.944 C 170.079 220.161,170.074 220.157,171.508 223.108 M227.990 223.339 C 227.985 224.253,227.824 225.676,227.632 226.502 C 227.440 227.328,227.427 228.093,227.602 228.201 C 228.451 228.726,228.471 233.092,227.634 234.734 C 227.175 235.633,226.800 236.670,226.800 237.039 C 226.800 237.408,226.083 238.488,225.207 239.439 L 223.613 241.168 222.980 238.991 C 222.632 237.794,222.191 236.718,222.000 236.600 C 220.322 235.563,220.331 230.564,222.015 228.600 C 222.393 228.160,222.918 227.125,223.182 226.300 C 223.446 225.475,223.821 224.800,224.015 224.800 C 224.208 224.800,224.679 223.921,225.061 222.848 C 226.011 220.171,228.007 220.506,227.990 223.339 M141.200 225.000 C 141.200 225.550,141.045 226.000,140.855 226.000 C 140.666 226.000,140.597 225.550,140.702 225.000 C 140.807 224.450,140.962 224.000,141.047 224.000 C 141.131 224.000,141.200 224.450,141.200 225.000 M147.799 226.397 C 147.938 226.835,149.206 228.140,150.616 229.297 C 155.362 233.191,155.074 233.054,159.135 233.337 C 163.772 233.659,163.634 233.559,163.340 236.371 C 163.075 238.902,163.469 243.200,163.965 243.200 C 164.319 243.200,165.056 240.888,165.400 238.700 C 165.950 235.202,168.400 238.831,168.400 243.144 C 168.400 247.932,163.405 249.718,160.931 245.815 C 160.309 244.833,159.575 244.023,159.300 244.015 C 159.025 244.007,158.800 243.675,158.800 243.278 C 158.800 241.404,156.146 239.048,153.523 238.593 C 152.711 238.453,151.847 238.097,151.603 237.804 C 151.360 237.510,150.273 237.057,149.188 236.797 C 146.743 236.211,144.923 234.312,144.546 231.952 C 144.403 231.058,143.862 229.821,143.343 229.205 C 142.130 227.764,142.140 227.719,143.800 227.026 C 144.570 226.704,145.200 226.252,145.200 226.020 C 145.200 225.210,147.529 225.547,147.799 226.397 M251.400 226.400 C 251.798 226.840,252.355 227.200,252.638 227.200 C 253.573 227.200,253.696 228.045,252.892 228.930 C 252.456 229.408,251.875 230.790,251.600 232.000 C 250.976 234.750,250.038 235.796,247.443 236.632 C 246.319 236.994,245.024 237.526,244.564 237.813 C 244.104 238.100,242.940 238.547,241.978 238.806 C 240.120 239.306,237.200 241.826,237.200 242.929 C 237.200 243.272,237.017 243.666,236.794 243.804 C 236.571 243.942,236.115 244.717,235.781 245.527 C 234.935 247.580,234.470 247.819,231.626 247.663 C 228.040 247.465,226.881 243.690,228.732 238.229 C 229.556 235.797,230.400 235.351,230.400 237.347 C 230.400 239.424,231.175 242.681,231.790 243.192 C 232.600 243.864,233.295 240.070,232.969 236.761 C 232.656 233.585,232.500 233.712,237.149 233.361 C 240.328 233.121,241.043 232.928,242.319 231.964 C 245.716 229.398,247.125 228.129,247.943 226.900 C 248.950 225.385,250.304 225.189,251.400 226.400 M335.414 231.623 C 335.558 231.855,335.557 232.515,335.413 233.089 L 335.151 234.133 334.126 233.108 C 333.563 232.544,333.224 231.884,333.374 231.642 C 333.722 231.080,335.071 231.067,335.414 231.623 M182.230 254.267 C 182.669 254.435,182.792 255.324,182.767 258.143 L 182.733 261.800 182.175 259.495 C 181.868 258.227,181.230 256.667,180.758 256.028 C 180.004 255.009,179.938 254.583,180.213 252.534 L 180.527 250.200 181.093 252.124 C 181.405 253.182,181.917 254.147,182.230 254.267 M214.192 257.555 C 214.582 259.861,213.718 262.849,212.960 261.813 C 212.279 260.881,212.249 259.595,212.863 257.546 C 213.452 255.583,213.860 255.585,214.192 257.555 M164.394 256.700 C 164.376 257.577,163.612 258.159,163.606 257.300 C 163.603 256.805,163.780 256.400,164.000 256.400 C 164.220 256.400,164.397 256.535,164.394 256.700 M39.890 261.179 C 39.773 261.625,39.165 262.211,38.539 262.480 L 37.400 262.970 38.940 263.111 C 40.755 263.278,40.703 263.313,40.870 261.839 C 41.020 260.509,40.208 259.962,39.890 261.179 M347.191 263.369 C 345.897 264.663,347.714 267.980,350.161 268.787 C 351.418 269.202,351.665 269.111,354.392 267.232 C 355.985 266.135,357.474 265.175,357.702 265.099 C 359.016 264.661,357.076 263.110,355.444 263.294 C 354.521 263.398,352.375 263.369,350.674 263.230 C 348.833 263.080,347.424 263.136,347.191 263.369 M47.912 263.422 C 47.794 263.540,46.567 263.710,45.186 263.801 C 41.940 264.014,41.590 264.388,42.959 266.182 C 44.845 268.655,49.173 267.799,49.194 264.949 C 49.200 264.089,48.308 263.026,47.912 263.422 M182.800 264.400 C 182.800 264.953,182.533 265.200,181.938 265.200 C 181.101 265.200,181.097 265.176,181.800 264.400 C 182.198 263.960,182.586 263.600,182.662 263.600 C 182.738 263.600,182.800 263.960,182.800 264.400 M213.962 264.500 C 214.431 265.113,214.397 265.200,213.686 265.200 C 213.067 265.200,212.925 265.007,213.088 264.384 C 213.206 263.935,213.330 263.620,213.364 263.684 C 213.398 263.748,213.667 264.115,213.962 264.500 M158.646 270.917 C 156.793 273.180,156.481 274.112,156.161 278.346 C 155.894 281.880,155.878 281.924,154.746 282.151 C 153.604 282.379,153.600 282.391,153.586 285.490 C 153.577 287.723,153.355 289.051,152.800 290.200 C 152.214 291.413,152.024 292.682,152.014 295.450 C 151.994 300.726,149.743 305.812,148.982 302.300 C 148.827 301.585,148.361 300.520,147.947 299.934 C 147.533 299.347,147.085 298.267,146.952 297.534 C 146.690 296.087,144.437 292.000,143.901 292.000 C 143.720 292.000,143.758 291.652,143.986 291.226 C 144.771 289.760,144.490 287.751,143.400 287.037 C 142.019 286.132,142.148 285.099,143.836 283.532 C 144.625 282.800,145.431 281.795,145.626 281.300 C 145.838 280.761,146.320 280.400,146.828 280.400 C 147.295 280.400,148.154 280.146,148.738 279.836 C 149.322 279.525,150.407 279.044,151.149 278.767 C 152.100 278.411,152.669 277.840,153.077 276.831 C 154.360 273.660,155.756 270.800,156.022 270.800 C 156.176 270.800,156.525 270.265,156.796 269.610 C 157.397 268.159,158.534 266.800,159.147 266.800 C 159.396 266.800,159.631 266.575,159.670 266.300 C 159.708 266.025,159.809 266.567,159.893 267.504 C 160.026 268.977,159.856 269.441,158.646 270.917 M238.840 268.879 C 239.267 269.715,239.763 270.400,239.943 270.400 C 240.444 270.400,242.323 274.409,242.629 276.130 C 242.854 277.399,243.148 277.768,244.350 278.285 C 247.945 279.831,250.091 280.973,250.267 281.431 C 250.372 281.704,250.939 282.049,251.527 282.196 C 253.798 282.766,254.321 284.939,252.785 287.424 C 252.337 288.149,251.772 289.881,251.529 291.271 C 251.286 292.662,250.764 294.215,250.368 294.723 C 249.973 295.230,249.344 296.580,248.972 297.723 C 248.599 298.865,248.157 299.980,247.988 300.200 C 247.820 300.420,247.454 301.370,247.175 302.311 C 246.605 304.231,246.023 304.323,245.496 302.575 C 245.301 301.929,244.956 301.018,244.730 300.550 C 244.442 299.955,244.453 299.448,244.768 298.859 C 245.057 298.320,245.086 297.764,244.850 297.309 C 244.120 295.903,243.200 289.248,243.199 285.365 L 243.198 281.400 241.714 280.600 C 240.270 279.822,240.215 279.709,239.716 276.476 C 239.230 273.322,238.294 271.348,236.549 269.800 C 236.039 269.347,235.523 267.010,235.859 266.674 C 236.365 266.168,238.119 267.465,238.840 268.879 M214.266 275.027 C 214.682 276.113,213.802 276.556,212.432 275.950 C 211.754 275.650,211.200 275.299,211.200 275.169 C 211.200 274.217,213.907 274.092,214.266 275.027 M184.800 275.040 C 184.800 275.768,182.409 277.437,181.830 277.113 C 180.329 276.273,181.074 274.800,183.000 274.800 C 183.990 274.800,184.800 274.908,184.800 275.040 M137.767 277.043 C 138.753 277.421,138.611 279.600,137.600 279.600 C 136.952 279.600,136.800 279.333,136.800 278.200 C 136.800 276.695,136.815 276.677,137.767 277.043 M259.262 277.841 C 259.054 278.986,258.792 279.077,258.167 278.223 C 257.720 277.611,257.706 277.380,258.100 277.130 C 258.858 276.650,259.417 276.992,259.262 277.841 M181.844 280.106 C 182.994 281.011,183.092 282.000,182.033 282.000 C 181.611 282.000,181.021 282.094,180.721 282.209 C 179.249 282.774,178.731 281.491,179.667 279.597 C 180.355 278.206,180.593 277.975,180.722 278.577 C 180.813 279.005,181.319 279.693,181.844 280.106 M216.384 280.181 C 217.276 281.256,216.720 282.200,215.195 282.200 C 214.029 282.200,213.778 282.043,213.665 281.245 C 213.452 279.736,215.386 278.978,216.384 280.181 M173.226 280.414 C 174.252 280.963,174.205 281.547,173.100 281.971 C 171.977 282.402,171.439 281.939,171.787 280.840 C 172.093 279.876,172.176 279.852,173.226 280.414 M224.308 281.525 C 224.397 281.790,224.099 282.000,223.633 282.000 C 222.802 282.000,222.553 281.580,223.075 281.058 C 223.446 280.688,224.113 280.940,224.308 281.525 M162.323 281.630 C 162.245 281.867,162.009 282.060,161.800 282.060 C 161.591 282.060,161.356 281.867,161.277 281.630 C 161.198 281.394,161.433 281.200,161.800 281.200 C 162.167 281.200,162.402 281.394,162.323 281.630 M224.393 285.048 C 225.097 285.721,224.435 287.107,223.537 286.840 C 223.242 286.752,222.491 286.595,221.868 286.490 C 220.547 286.268,220.097 285.447,220.819 284.577 C 221.410 283.866,223.436 284.132,224.393 285.048 M175.600 285.192 C 175.600 285.727,175.242 286.070,174.500 286.246 C 173.895 286.390,173.116 286.753,172.769 287.053 C 172.226 287.523,172.008 287.460,171.201 286.601 C 170.130 285.461,170.242 285.230,172.080 284.795 C 174.561 284.207,175.600 284.324,175.600 285.192 M171.332 288.426 C 172.277 288.066,172.417 288.129,172.639 289.012 C 172.775 289.555,173.028 290.000,173.201 290.000 C 173.374 290.000,173.940 290.455,174.458 291.011 C 175.350 291.968,180.716 294.816,182.738 295.405 L 183.675 295.678 182.563 296.839 C 181.677 297.763,181.104 298.000,179.754 298.000 C 177.924 298.000,176.800 298.763,176.800 300.005 C 176.800 301.397,176.064 301.218,174.930 299.549 C 174.308 298.635,173.409 297.468,172.931 296.956 C 172.453 296.444,171.949 295.669,171.811 295.233 C 171.332 293.726,168.859 293.828,168.263 295.379 C 167.907 296.308,169.000 299.447,170.159 300.824 C 170.731 301.505,171.200 302.219,171.200 302.412 C 171.200 302.605,171.979 303.536,172.932 304.481 C 173.884 305.427,174.850 306.539,175.077 306.953 C 175.630 307.959,177.934 308.791,181.701 309.344 L 184.802 309.800 188.795 313.934 C 191.857 317.104,192.892 318.456,193.232 319.734 C 193.476 320.650,193.937 321.850,194.257 322.400 C 194.576 322.950,195.165 324.123,195.564 325.006 C 197.084 328.366,199.020 328.698,200.192 325.800 C 200.636 324.700,201.315 323.355,201.700 322.811 C 202.085 322.267,202.400 321.546,202.400 321.208 C 202.400 319.863,204.486 316.816,207.747 313.397 L 211.178 309.800 214.489 309.355 C 218.625 308.798,220.684 307.958,221.193 306.619 C 221.406 306.059,221.855 305.600,222.190 305.600 C 222.526 305.600,222.800 305.430,222.800 305.223 C 222.800 305.015,223.757 303.710,224.928 302.323 C 226.154 300.868,227.337 298.953,227.721 297.800 L 228.386 295.800 227.370 294.900 C 226.037 293.718,225.368 293.765,224.519 295.100 C 224.134 295.705,223.590 296.344,223.310 296.520 C 223.029 296.696,222.505 297.416,222.144 298.120 C 221.153 300.052,219.626 301.762,219.454 301.131 C 218.710 298.403,218.571 298.199,217.393 298.096 C 215.909 297.966,212.749 296.354,212.928 295.817 C 213.000 295.599,213.673 295.295,214.422 295.142 C 215.172 294.989,216.155 294.399,216.607 293.832 C 217.224 293.058,217.799 292.800,218.906 292.800 C 220.011 292.800,220.535 292.565,220.993 291.866 C 221.330 291.353,222.054 290.692,222.603 290.399 C 223.151 290.105,223.600 289.629,223.600 289.340 C 223.600 289.051,224.095 288.707,224.700 288.575 C 225.305 288.442,226.250 288.201,226.800 288.038 C 230.124 287.056,232.186 289.191,233.230 294.698 C 233.490 296.073,234.040 297.585,234.452 298.060 C 234.938 298.621,235.200 299.537,235.200 300.680 C 235.200 302.227,235.347 302.519,236.430 303.119 C 237.106 303.493,238.039 304.120,238.503 304.511 C 238.968 304.902,239.809 305.332,240.374 305.468 C 241.177 305.660,244.681 307.444,244.832 307.738 C 245.270 308.589,245.758 322.902,245.387 324.000 C 245.127 324.770,244.789 326.240,244.637 327.267 C 244.485 328.294,244.120 329.335,243.825 329.579 C 243.530 329.824,243.169 330.988,243.022 332.165 C 242.858 333.473,242.374 334.823,241.777 335.631 C 241.240 336.359,240.797 337.235,240.794 337.578 C 240.791 337.920,240.527 338.650,240.208 339.200 C 239.888 339.750,239.263 340.920,238.819 341.800 C 238.374 342.680,237.841 343.670,237.634 344.000 C 237.427 344.330,237.162 344.910,237.046 345.288 C 236.930 345.667,236.332 346.081,235.717 346.209 C 235.103 346.337,234.060 346.685,233.400 346.982 C 232.740 347.280,230.681 347.810,228.823 348.162 C 226.966 348.513,225.324 349.000,225.173 349.244 C 224.610 350.154,221.335 350.164,220.185 349.260 C 219.599 348.798,218.462 348.306,217.659 348.166 C 216.857 348.025,215.750 347.618,215.200 347.262 C 214.650 346.905,213.570 346.324,212.800 345.970 C 212.030 345.616,211.153 345.028,210.851 344.663 C 210.549 344.299,210.083 344.000,209.814 344.000 C 209.546 344.000,208.893 343.635,208.363 343.188 C 206.848 341.912,204.185 339.893,202.574 338.800 C 201.763 338.250,200.697 337.395,200.204 336.900 C 199.058 335.749,196.988 335.707,195.842 336.813 C 193.660 338.919,192.336 340.000,191.939 340.000 C 191.549 340.000,190.934 340.457,187.637 343.199 C 187.107 343.640,186.442 344.000,186.159 344.000 C 185.877 344.000,185.410 344.315,185.123 344.701 C 184.447 345.607,179.742 348.000,178.637 348.000 C 178.169 348.000,177.123 348.450,176.314 349.000 C 174.537 350.208,172.937 350.267,170.893 349.201 C 170.050 348.762,168.020 348.149,166.380 347.838 C 160.200 346.667,159.492 346.197,157.588 342.000 C 156.284 339.124,155.007 336.408,154.204 334.800 C 153.709 333.810,153.183 332.199,153.035 331.220 C 152.886 330.241,152.578 329.215,152.350 328.939 C 150.627 326.863,149.908 308.231,151.530 307.690 C 151.774 307.609,152.591 307.123,153.346 306.611 C 154.100 306.099,155.141 305.552,155.659 305.395 C 158.355 304.578,160.800 302.408,160.800 300.833 C 160.800 299.911,161.118 298.904,161.604 298.285 C 162.047 297.723,162.575 296.393,162.778 295.331 C 163.308 292.561,165.022 288.910,165.928 288.623 C 166.349 288.489,167.019 288.020,167.417 287.582 C 168.136 286.787,168.144 286.788,169.206 287.806 C 170.112 288.674,170.433 288.768,171.332 288.426 M38.800 290.737 C 37.488 291.370,36.991 293.093,37.863 293.991 C 38.143 294.279,41.114 294.220,41.414 293.920 C 43.078 292.255,40.971 289.690,38.800 290.737 M354.814 290.774 C 353.806 292.657,355.227 297.926,356.356 296.497 C 356.710 296.049,357.753 295.306,358.674 294.847 C 360.174 294.097,361.600 292.684,361.600 291.948 C 361.600 290.810,355.371 289.733,354.814 290.774 M196.375 296.077 C 196.969 296.448,197.849 296.439,200.339 296.034 C 202.099 295.749,203.726 295.630,203.954 295.772 C 204.601 296.172,203.604 297.991,202.631 298.185 C 197.805 299.144,191.724 298.472,192.467 297.060 C 193.273 295.529,194.858 295.130,196.375 296.077 M338.390 310.626 C 337.835 312.087,337.868 312.289,339.172 315.400 C 339.817 316.940,340.438 318.506,340.552 318.879 C 340.808 319.720,343.072 320.935,343.836 320.641 C 344.628 320.338,344.537 319.053,343.600 317.304 C 343.160 316.484,342.800 315.500,342.800 315.118 C 342.800 314.736,342.260 314.025,341.600 313.537 C 340.891 313.012,340.400 312.285,340.400 311.757 C 340.400 309.540,339.084 308.800,338.390 310.626 M56.006 310.789 C 55.783 311.206,55.600 311.829,55.600 312.173 C 55.600 312.517,54.857 313.564,53.949 314.500 C 53.041 315.435,51.700 317.134,50.970 318.275 C 50.240 319.416,49.256 320.556,48.784 320.808 C 48.312 321.061,47.513 322.197,47.008 323.334 C 46.144 325.278,44.866 326.920,41.938 329.851 C 40.592 331.199,40.548 332.975,41.850 333.474 C 42.515 333.730,45.992 330.270,49.000 326.360 C 49.880 325.216,51.625 323.240,52.877 321.968 C 54.371 320.451,55.299 319.118,55.575 318.092 C 55.807 317.231,56.354 316.204,56.790 315.809 C 58.217 314.518,58.364 310.779,57.010 310.259 C 56.660 310.125,56.244 310.345,56.006 310.789 M72.200 332.139 C 70.943 332.863,66.884 335.940,66.618 336.371 C 66.375 336.764,62.644 339.649,60.800 340.869 C 59.315 341.852,53.600 347.432,53.600 347.899 C 53.600 350.030,57.769 348.242,62.974 343.880 C 64.528 342.577,66.995 340.909,68.455 340.174 C 70.576 339.104,71.201 338.571,71.568 337.520 C 71.820 336.797,72.486 335.541,73.049 334.730 C 74.523 332.602,74.027 331.087,72.200 332.139 M322.400 332.405 C 322.400 332.848,322.580 333.523,322.800 333.905 C 323.020 334.287,323.551 335.449,323.980 336.487 C 324.576 337.929,325.025 338.439,325.880 338.647 C 326.496 338.797,327.355 339.163,327.789 339.460 C 328.626 340.033,330.680 340.174,331.819 339.737 C 332.386 339.520,332.294 339.365,331.284 338.837 C 329.691 338.005,326.633 335.118,325.735 333.598 C 325.346 332.939,324.717 332.400,324.337 332.400 C 323.958 332.400,323.536 332.220,323.400 332.000 C 322.981 331.322,322.400 331.557,322.400 332.405 M208.653 348.235 C 210.064 348.766,211.636 349.200,212.147 349.200 C 212.658 349.200,213.385 349.541,213.762 349.958 C 214.143 350.379,215.283 350.840,216.324 350.993 C 217.356 351.146,218.745 351.605,219.412 352.013 C 220.079 352.422,221.339 352.936,222.212 353.156 C 228.359 354.704,230.800 357.009,230.800 361.266 C 230.800 362.006,231.154 363.273,231.587 364.081 C 232.020 364.888,232.554 366.662,232.773 368.023 C 232.992 369.383,233.438 370.904,233.765 371.402 C 234.823 373.018,232.366 373.391,229.712 372.017 C 227.725 370.988,223.790 370.367,223.010 370.960 C 222.576 371.289,222.360 372.838,222.155 377.100 C 221.829 383.880,221.586 384.100,218.167 380.700 C 213.178 375.738,212.434 375.647,211.888 379.931 C 211.767 380.883,211.403 381.963,211.078 382.331 C 210.754 382.699,210.358 383.630,210.199 384.400 C 209.538 387.586,209.402 387.474,206.457 381.302 C 205.199 378.665,202.833 378.016,202.040 380.090 C 201.848 380.590,201.328 381.328,200.882 381.729 C 200.437 382.130,199.855 382.985,199.588 383.629 C 198.848 385.414,197.432 385.224,196.400 383.200 C 195.951 382.320,195.398 381.600,195.171 381.600 C 194.945 381.600,194.496 380.970,194.174 380.200 C 192.954 377.279,190.850 378.872,187.362 385.358 L 186.524 386.917 186.032 384.958 C 185.761 383.881,185.193 382.439,184.770 381.753 C 184.346 381.067,184.000 379.880,184.000 379.115 C 184.000 376.264,182.659 375.916,180.563 378.221 C 179.574 379.309,178.217 380.796,177.549 381.524 C 175.346 383.924,174.696 383.326,174.156 378.400 C 173.902 376.090,173.780 373.658,173.884 372.995 C 174.306 370.317,171.019 369.848,166.823 371.988 C 163.974 373.442,161.659 373.040,162.560 371.249 C 162.850 370.672,163.200 369.342,163.337 368.293 C 163.474 367.244,163.866 365.847,164.206 365.188 C 164.547 364.528,165.011 363.137,165.236 362.095 C 166.411 356.671,167.025 355.335,168.474 355.045 C 169.093 354.921,170.365 354.472,171.300 354.046 C 172.235 353.621,173.677 353.146,174.503 352.991 C 175.330 352.836,176.439 352.370,176.967 351.955 C 177.494 351.540,178.381 351.200,178.937 351.200 C 180.184 351.200,181.880 350.577,182.603 349.854 C 182.902 349.555,183.897 349.191,184.815 349.044 C 185.733 348.897,187.050 348.485,187.741 348.127 C 190.852 346.518,204.278 346.588,208.653 348.235 M327.826 369.958 C 327.558 370.391,328.721 370.896,329.243 370.574 C 329.446 370.448,329.509 370.177,329.383 369.972 C 329.090 369.498,328.116 369.489,327.826 369.958 " stroke="none" fill="#4555a6" fill-rule="evenodd"></path><path id="path1" d="M0.000 267.000 L 0.000 534.000 200.000 534.000 L 400.000 534.000 400.000 267.000 L 400.000 0.000 200.000 0.000 L 0.000 0.000 0.000 267.000 M208.003 74.500 C 208.215 74.995,208.653 76.711,208.976 78.314 C 209.327 80.055,209.933 81.685,210.481 82.362 L 211.400 83.495 221.689 83.563 C 234.570 83.649,233.530 84.050,237.000 77.671 C 237.440 76.862,238.385 75.629,239.100 74.931 L 240.400 73.661 240.645 74.638 C 240.780 75.176,240.673 76.140,240.408 76.781 C 240.068 77.601,239.966 80.330,240.062 85.973 L 240.200 94.000 241.200 93.998 C 242.211 93.996,246.297 92.482,247.271 91.747 C 248.157 91.080,257.813 86.400,258.305 86.400 C 258.558 86.400,259.428 85.950,260.238 85.400 C 261.049 84.850,261.922 84.400,262.178 84.400 C 262.435 84.400,263.255 83.950,264.000 83.400 C 264.745 82.850,265.699 82.400,266.120 82.400 C 266.540 82.400,267.419 81.950,268.073 81.400 C 268.727 80.850,269.535 80.400,269.869 80.400 C 270.203 80.400,270.954 80.068,271.538 79.661 C 274.801 77.390,277.166 77.905,275.878 80.606 C 275.403 81.600,275.200 83.060,275.200 85.467 C 275.200 87.359,274.991 89.605,274.735 90.459 C 273.722 93.842,277.454 95.176,283.520 93.599 C 289.514 92.041,291.354 92.930,288.706 96.105 C 286.772 98.425,286.000 99.941,286.000 101.420 C 286.000 102.056,285.294 103.135,284.000 104.478 C 282.900 105.619,282.000 106.870,282.000 107.258 C 282.000 107.645,281.516 108.286,280.925 108.681 C 280.333 109.077,278.790 110.480,277.496 111.800 C 276.201 113.120,274.592 114.761,273.921 115.446 C 273.004 116.381,272.830 116.771,273.220 117.012 C 274.104 117.559,276.974 117.366,278.012 116.691 C 278.556 116.337,279.990 115.930,281.200 115.785 C 282.410 115.641,283.872 115.192,284.449 114.787 C 285.026 114.383,286.466 113.780,287.649 113.448 C 291.003 112.508,294.061 111.383,295.798 110.452 C 296.700 109.969,298.118 109.600,299.073 109.600 C 300.300 109.600,301.042 109.338,301.800 108.635 C 302.373 108.104,303.777 107.446,304.921 107.173 C 306.064 106.900,307.307 106.486,307.682 106.253 C 308.785 105.569,308.856 106.122,308.004 108.789 C 307.562 110.172,307.200 111.709,307.200 112.203 C 307.200 112.698,306.930 113.326,306.600 113.600 C 305.146 114.807,306.417 118.426,308.579 119.233 C 309.252 119.484,314.113 119.842,319.400 120.029 C 326.211 120.271,329.465 120.544,330.600 120.968 C 331.480 121.296,333.118 121.573,334.240 121.582 C 337.042 121.607,338.939 122.295,338.555 123.148 C 338.394 123.506,338.151 125.060,338.016 126.600 C 337.777 129.324,336.770 131.879,334.752 134.880 C 334.339 135.496,333.640 136.533,333.200 137.184 C 331.731 139.358,333.649 142.483,337.800 144.678 C 338.460 145.027,339.481 145.692,340.069 146.156 C 340.656 146.620,341.646 147.400,342.269 147.888 C 342.891 148.377,343.895 148.886,344.500 149.020 C 345.105 149.154,345.600 149.528,345.600 149.851 C 345.600 150.174,346.095 150.655,346.700 150.919 C 347.305 151.184,348.745 152.282,349.900 153.360 C 352.105 155.417,352.337 156.113,351.561 158.340 C 351.258 159.210,351.247 159.959,351.526 160.759 C 351.865 161.733,351.773 162.148,350.944 163.369 C 350.401 164.167,349.718 165.499,349.425 166.328 C 349.133 167.158,348.331 168.751,347.643 169.868 C 346.956 170.985,346.188 172.489,345.937 173.209 C 345.685 173.930,345.171 174.829,344.793 175.207 C 344.416 175.584,343.801 176.772,343.427 177.846 C 342.782 179.700,342.220 180.929,340.978 183.200 C 338.511 187.713,337.865 191.783,339.200 194.400 C 339.640 195.262,340.001 196.200,340.002 196.484 C 340.004 196.768,340.257 197.483,340.565 198.073 C 340.873 198.663,341.245 199.692,341.391 200.360 C 341.538 201.027,342.085 202.203,342.607 202.972 C 343.869 204.831,346.232 209.828,346.732 211.694 C 346.952 212.515,347.507 213.665,347.966 214.248 C 348.425 214.831,348.800 215.563,348.800 215.875 C 348.800 216.186,349.153 217.107,349.585 217.921 C 350.669 219.964,352.206 223.509,352.770 225.268 C 353.029 226.075,353.499 226.950,353.814 227.211 C 354.129 227.473,354.556 228.252,354.763 228.943 C 354.971 229.634,355.701 231.540,356.385 233.178 C 358.629 238.548,357.406 239.850,350.233 239.723 C 347.487 239.674,345.049 239.858,343.665 240.218 C 341.393 240.810,338.801 239.778,338.800 238.280 C 338.797 236.035,336.213 235.477,333.600 237.157 C 333.050 237.511,331.610 238.282,330.400 238.870 C 329.190 239.459,326.876 240.587,325.257 241.376 C 323.638 242.166,321.581 243.439,320.685 244.206 C 319.789 244.973,318.889 245.600,318.686 245.600 C 318.482 245.600,317.781 246.050,317.127 246.600 C 316.465 247.157,315.431 247.600,314.793 247.600 C 314.163 247.600,313.531 247.788,313.389 248.018 C 312.524 249.418,309.029 251.600,307.653 251.600 C 305.246 251.600,303.187 253.927,304.344 255.338 C 305.037 256.183,306.733 259.585,307.219 261.103 C 307.482 261.926,308.035 263.161,308.449 263.847 C 308.862 264.533,309.200 265.369,309.200 265.705 C 309.200 266.040,310.055 268.001,311.100 270.062 C 316.435 280.583,316.920 282.875,314.683 286.997 C 314.088 288.095,313.598 289.265,313.596 289.597 C 313.594 289.929,313.144 291.163,312.596 292.340 C 312.048 293.517,311.600 294.830,311.600 295.258 C 311.600 295.686,311.177 296.460,310.659 296.977 C 310.141 297.495,309.606 298.606,309.470 299.446 C 309.334 300.286,308.870 301.450,308.439 302.032 C 308.009 302.614,307.534 303.747,307.383 304.549 C 307.233 305.351,306.796 306.410,306.413 306.903 C 306.030 307.397,305.496 308.475,305.227 309.300 C 304.700 310.918,304.236 311.104,303.024 310.187 C 302.596 309.864,301.470 309.600,300.520 309.600 C 299.296 309.600,298.595 309.370,298.118 308.812 C 297.745 308.377,296.494 307.827,295.322 307.584 C 294.155 307.342,292.935 306.877,292.609 306.552 C 292.284 306.227,291.048 305.803,289.863 305.610 C 288.678 305.417,287.012 304.886,286.160 304.430 C 285.309 303.973,284.339 303.598,284.006 303.596 C 283.673 303.594,282.500 303.150,281.400 302.609 C 280.300 302.068,279.089 301.619,278.708 301.613 C 277.835 301.597,273.183 299.835,270.760 298.603 C 269.748 298.088,268.038 297.546,266.960 297.398 C 265.882 297.249,264.550 296.814,264.000 296.430 C 261.828 294.913,259.178 295.208,261.077 296.755 C 262.138 297.618,266.800 303.138,266.800 303.531 C 266.800 303.701,267.606 304.642,268.592 305.620 C 269.578 306.599,270.388 307.562,270.392 307.760 C 270.396 307.957,271.020 308.721,271.778 309.458 C 272.536 310.194,273.654 311.472,274.262 312.298 C 275.379 313.815,277.900 316.713,280.942 319.980 C 281.854 320.959,282.784 322.080,283.010 322.471 C 283.235 322.863,284.060 323.862,284.844 324.692 C 286.127 326.049,287.819 328.380,289.051 330.485 C 289.299 330.909,289.884 331.523,290.351 331.851 C 290.818 332.178,291.200 332.622,291.200 332.837 C 291.200 333.053,292.029 334.078,293.041 335.115 C 294.054 336.152,295.132 337.575,295.437 338.278 C 295.743 338.981,296.223 339.701,296.505 339.878 C 296.786 340.055,297.242 340.650,297.517 341.200 C 298.091 342.347,299.715 344.717,300.533 345.600 C 300.839 345.930,301.308 346.619,301.575 347.130 C 301.842 347.642,302.407 348.407,302.830 348.830 C 303.254 349.254,303.600 349.845,303.600 350.145 C 303.600 350.445,304.140 351.369,304.800 352.200 C 305.460 353.031,306.000 353.952,306.000 354.247 C 306.000 354.543,306.495 354.901,307.100 355.044 C 308.626 355.403,310.387 356.498,314.800 359.830 C 316.890 361.409,319.166 362.823,319.859 362.973 C 320.551 363.123,321.447 363.610,321.850 364.056 C 322.254 364.501,323.127 365.099,323.792 365.384 C 327.530 366.986,327.774 369.600,324.186 369.600 C 322.078 369.600,321.722 370.089,321.377 373.458 C 321.070 376.449,320.014 381.572,319.499 382.566 C 319.280 382.987,319.127 384.589,319.159 386.125 C 319.286 392.310,315.463 392.616,309.178 386.925 C 308.616 386.416,307.865 386.000,307.509 386.000 C 307.153 386.000,306.353 385.587,305.731 385.083 C 303.959 383.646,302.691 382.925,300.043 381.849 L 297.586 380.850 296.942 381.833 C 296.066 383.169,296.435 385.103,297.968 387.220 C 298.646 388.155,299.200 389.110,299.200 389.343 C 299.200 389.576,299.861 390.444,300.670 391.272 C 303.430 394.098,304.769 402.436,303.249 407.342 C 302.782 408.850,302.400 410.757,302.400 411.580 C 302.400 412.402,302.066 414.048,301.657 415.237 C 301.249 416.427,300.786 418.432,300.629 419.693 C 299.937 425.258,296.848 425.062,290.015 419.017 C 284.534 414.167,283.921 413.931,281.885 415.889 C 279.767 417.926,278.946 419.988,278.222 425.095 C 277.886 427.463,277.420 430.077,277.186 430.904 C 276.952 431.731,276.509 433.958,276.203 435.853 C 275.031 443.090,272.702 446.171,270.335 443.616 C 268.030 441.127,264.283 441.196,262.121 443.769 C 261.171 444.899,258.758 445.979,257.150 445.994 C 256.505 446.000,255.312 444.881,248.000 437.409 C 242.915 432.212,240.404 430.097,239.200 429.996 C 236.612 429.778,236.221 429.957,235.236 431.815 C 234.706 432.813,233.768 433.928,233.151 434.292 C 232.512 434.670,231.922 435.442,231.781 436.087 C 231.644 436.710,231.109 437.722,230.592 438.336 C 230.075 438.951,229.336 440.251,228.949 441.227 C 228.563 442.202,227.741 443.863,227.123 444.918 C 226.505 445.972,226.000 447.021,226.000 447.249 C 226.000 447.477,225.325 448.357,224.500 449.205 C 223.675 450.054,222.507 451.480,221.904 452.374 C 220.005 455.191,217.908 454.829,215.471 451.262 C 214.442 449.757,213.600 448.389,213.600 448.223 C 213.600 448.057,213.105 447.418,212.500 446.803 C 210.855 445.131,209.600 443.348,209.600 442.683 C 209.600 442.359,209.227 441.996,208.770 441.876 C 208.314 441.757,207.843 441.286,207.724 440.830 C 207.454 439.800,207.118 439.786,206.233 440.764 C 205.852 441.184,205.069 441.647,204.492 441.791 C 203.312 442.088,200.800 444.557,200.800 445.421 C 200.800 447.400,196.088 445.891,195.374 443.684 C 193.683 438.450,189.626 440.151,185.045 448.014 C 183.344 450.934,182.693 451.709,181.210 452.584 C 180.823 452.813,180.046 453.327,179.483 453.726 C 178.050 454.744,176.253 453.805,175.177 451.477 C 174.438 449.879,172.940 447.262,171.565 445.167 C 170.656 443.782,165.392 434.789,164.794 433.600 C 163.177 430.381,160.242 428.916,158.486 430.451 C 157.763 431.083,156.831 431.600,156.413 431.600 C 155.996 431.600,155.546 431.940,155.414 432.355 C 155.283 432.769,154.146 434.079,152.887 435.265 C 151.629 436.451,149.198 438.985,147.484 440.896 C 144.939 443.733,144.095 444.420,142.884 444.642 C 142.068 444.791,141.045 445.158,140.611 445.457 C 139.391 446.297,138.968 446.145,136.632 444.029 C 133.046 440.781,133.051 440.782,129.686 443.672 C 127.777 445.311,124.569 445.327,123.987 443.700 C 123.771 443.095,123.329 442.128,123.005 441.551 C 122.680 440.974,122.224 438.724,121.990 436.551 C 121.756 434.378,121.314 431.700,121.006 430.600 C 120.699 429.500,120.187 426.710,119.867 424.400 C 118.401 413.787,116.576 413.104,108.021 419.968 C 100.186 426.255,97.868 425.426,96.983 416.023 C 96.829 414.386,96.471 412.814,96.186 412.529 C 95.902 412.245,95.541 410.615,95.385 408.906 C 95.229 407.198,94.766 404.720,94.356 403.400 C 93.103 399.361,92.922 395.187,93.949 393.990 C 95.190 392.544,96.712 390.346,97.268 389.200 C 97.534 388.650,98.108 387.796,98.543 387.303 C 99.473 386.248,99.653 382.927,98.809 382.405 C 97.998 381.904,91.360 385.490,88.800 387.813 C 86.915 389.523,84.474 390.400,81.601 390.400 C 78.262 390.400,77.683 389.532,78.311 385.471 C 78.719 382.834,78.693 382.537,77.978 381.776 C 77.097 380.839,76.969 379.591,77.680 378.880 C 78.046 378.514,78.052 378.089,77.708 377.100 C 77.458 376.385,77.130 374.576,76.979 373.080 C 76.677 370.105,75.983 369.003,74.640 369.363 C 74.178 369.488,73.499 369.592,73.131 369.595 C 72.762 369.598,71.636 370.230,70.627 371.000 C 69.483 371.874,68.347 372.400,67.606 372.400 C 66.781 372.400,66.219 372.705,65.763 373.400 C 65.403 373.950,64.949 374.400,64.754 374.400 C 64.126 374.400,64.378 372.291,65.100 371.501 C 67.689 368.667,69.530 367.175,72.330 365.643 C 72.890 365.336,73.781 364.571,74.310 363.943 C 74.944 363.189,75.651 362.800,76.387 362.800 C 77.000 362.800,77.727 362.529,78.002 362.198 C 79.373 360.546,87.872 355.200,89.128 355.200 C 89.634 355.200,90.003 354.841,90.167 354.190 C 90.306 353.634,90.731 352.864,91.110 352.477 C 91.490 352.091,92.115 351.151,92.500 350.388 C 92.885 349.624,93.829 348.190,94.599 347.200 C 95.368 346.210,96.159 345.040,96.357 344.600 C 96.555 344.160,97.185 343.260,97.758 342.600 C 98.330 341.940,98.799 341.177,98.800 340.903 C 98.800 340.630,99.160 340.182,99.600 339.907 C 100.040 339.632,100.400 339.188,100.400 338.920 C 100.400 338.454,104.241 333.515,105.971 331.758 C 106.427 331.295,106.800 330.742,106.800 330.530 C 106.800 330.318,107.250 329.753,107.800 329.275 C 108.350 328.797,108.800 328.201,108.800 327.951 C 108.800 327.702,109.983 326.243,111.429 324.710 C 112.876 323.177,114.385 321.387,114.783 320.731 C 115.182 320.076,115.889 319.273,116.354 318.947 C 116.819 318.621,117.200 318.172,117.200 317.948 C 117.200 317.724,118.587 316.026,120.283 314.173 C 121.978 312.320,123.530 310.511,123.730 310.153 C 123.930 309.795,124.883 308.725,125.847 307.774 C 126.811 306.824,127.600 305.920,127.600 305.765 C 127.600 305.611,127.966 305.105,128.413 304.642 C 130.440 302.541,131.600 301.143,131.600 300.800 C 131.600 300.457,132.760 299.059,134.787 296.958 C 136.564 295.117,134.189 294.611,132.359 296.441 C 131.884 296.916,131.038 297.201,130.100 297.202 C 129.238 297.202,127.579 297.712,126.200 298.400 C 124.880 299.059,123.170 299.712,122.400 299.852 C 121.630 299.992,120.678 300.442,120.284 300.853 C 119.814 301.344,119.008 301.600,117.932 301.600 C 117.023 301.600,115.739 301.940,115.047 302.363 C 114.361 302.783,112.996 303.341,112.014 303.602 C 111.032 303.863,109.823 304.396,109.328 304.785 C 108.833 305.175,107.358 305.615,106.050 305.762 C 104.606 305.926,103.591 306.248,103.462 306.582 C 103.346 306.885,102.253 307.340,101.032 307.593 C 99.812 307.847,98.709 308.224,98.580 308.433 C 98.196 309.054,95.595 310.000,94.251 310.006 C 93.563 310.009,92.744 310.174,92.431 310.372 C 91.855 310.737,90.400 309.367,90.400 308.460 C 90.400 308.232,90.057 307.450,89.638 306.723 C 89.219 305.995,88.756 304.655,88.610 303.744 C 88.453 302.765,87.947 301.714,87.372 301.174 C 86.739 300.579,86.400 299.818,86.400 298.992 C 86.400 298.232,86.080 297.434,85.600 297.000 C 85.160 296.602,84.800 295.827,84.800 295.278 C 84.800 294.729,84.363 293.362,83.829 292.240 C 80.335 284.899,80.308 284.815,80.488 282.039 C 80.665 279.303,83.018 273.135,85.632 268.551 C 86.274 267.425,86.800 266.174,86.800 265.773 C 86.800 265.372,87.236 264.584,87.768 264.022 C 88.300 263.460,89.212 261.520,89.794 259.712 C 90.376 257.904,91.170 256.031,91.559 255.551 C 93.070 253.685,91.290 251.600,88.186 251.600 C 87.018 251.600,86.482 251.317,85.466 250.163 C 84.009 248.508,82.455 247.600,81.082 247.600 C 80.555 247.600,79.782 247.222,79.363 246.759 C 78.944 246.297,78.061 245.646,77.401 245.313 C 76.740 244.981,75.750 244.303,75.200 243.807 C 74.015 242.739,69.334 240.278,66.817 239.399 C 65.836 239.057,64.216 238.283,63.217 237.680 C 58.542 234.856,58.248 234.906,57.226 238.704 L 56.793 240.313 55.096 239.932 C 54.163 239.722,51.389 239.517,48.932 239.475 C 44.905 239.407,44.369 239.311,43.506 238.500 C 42.979 238.005,42.124 237.600,41.606 237.600 C 39.395 237.600,38.815 234.549,40.617 232.400 C 40.894 232.070,41.310 231.104,41.541 230.253 C 41.772 229.402,42.226 228.412,42.550 228.053 C 42.873 227.694,43.404 226.680,43.730 225.800 C 44.714 223.138,46.182 219.859,46.865 218.800 C 47.220 218.250,47.628 217.130,47.771 216.311 C 47.915 215.492,48.307 214.668,48.643 214.480 C 48.979 214.292,49.428 213.342,49.641 212.369 C 49.854 211.396,50.369 210.130,50.786 209.555 C 51.202 208.980,51.665 207.861,51.813 207.069 C 51.962 206.277,52.325 205.428,52.620 205.183 C 52.915 204.939,53.446 203.866,53.800 202.800 C 54.154 201.734,54.704 200.646,55.022 200.382 C 55.340 200.118,55.600 199.546,55.600 199.110 C 55.600 198.674,56.047 197.481,56.593 196.459 C 59.467 191.079,60.074 188.037,58.800 185.400 C 58.375 184.520,58.021 183.646,58.014 183.458 C 58.006 183.270,57.575 182.611,57.056 181.994 C 56.490 181.321,56.009 180.088,55.852 178.910 C 55.680 177.610,55.053 176.117,53.996 174.490 C 53.118 173.140,52.400 171.878,52.400 171.686 C 52.400 171.494,51.875 170.541,51.233 169.569 C 50.592 168.596,49.941 167.120,49.787 166.289 C 49.628 165.433,49.181 164.604,48.753 164.375 C 48.339 164.153,48.000 163.775,48.000 163.534 C 48.000 163.294,47.176 161.413,46.168 159.355 L 44.336 155.614 45.134 154.493 C 45.573 153.876,46.398 153.122,46.966 152.818 C 47.535 152.514,48.000 152.115,48.000 151.932 C 48.000 151.750,48.259 151.600,48.576 151.600 C 48.892 151.600,49.983 150.880,51.000 150.000 C 52.017 149.120,53.044 148.400,53.284 148.400 C 53.523 148.400,54.668 147.635,55.829 146.700 C 56.989 145.765,58.874 144.460,60.017 143.800 C 64.841 141.014,67.347 137.439,65.379 136.150 C 64.874 135.818,64.256 135.064,64.007 134.474 C 63.275 132.737,62.116 130.778,61.279 129.857 C 60.850 129.386,60.283 128.328,60.020 127.506 C 59.757 126.684,59.372 125.906,59.165 125.778 C 58.958 125.650,58.440 124.863,58.015 124.029 L 57.241 122.513 58.194 122.003 C 58.784 121.687,59.935 121.569,61.216 121.692 C 62.717 121.836,63.850 121.670,65.343 121.085 C 67.118 120.389,68.552 120.258,75.800 120.131 C 86.217 119.947,89.599 119.462,91.054 117.944 C 92.057 116.897,92.079 116.561,91.231 115.200 C 90.306 113.713,88.400 109.026,88.400 108.235 C 88.400 107.754,88.187 107.147,87.927 106.887 C 87.103 106.063,87.837 105.946,89.649 106.612 C 90.612 106.965,91.974 107.401,92.677 107.580 C 93.379 107.759,94.438 108.287,95.031 108.753 C 95.623 109.219,96.689 109.600,97.400 109.600 C 98.111 109.600,99.147 109.958,99.703 110.395 C 100.259 110.832,101.678 111.390,102.857 111.635 C 104.035 111.879,105.377 112.317,105.837 112.608 C 106.298 112.899,107.723 113.330,109.005 113.567 C 110.286 113.804,111.646 114.280,112.027 114.624 C 112.408 114.969,113.648 115.496,114.782 115.795 C 115.917 116.095,117.060 116.518,117.323 116.735 C 117.585 116.953,119.130 117.315,120.755 117.540 C 122.380 117.765,123.901 118.141,124.135 118.375 C 124.369 118.609,125.199 118.794,125.980 118.787 C 127.246 118.776,127.324 118.717,126.700 118.243 C 126.315 117.951,126.000 117.494,126.000 117.227 C 126.000 116.676,123.740 114.139,118.849 109.200 C 116.997 107.330,113.975 103.783,112.132 101.319 C 110.289 98.854,108.156 96.174,107.391 95.363 C 105.693 93.563,105.682 93.727,107.536 93.172 C 108.787 92.797,109.736 92.846,112.636 93.436 C 114.596 93.835,117.820 94.170,119.800 94.180 L 123.400 94.200 123.532 93.049 C 123.604 92.415,123.217 90.885,122.673 89.649 C 122.126 88.407,121.560 86.146,121.408 84.600 C 121.257 83.060,120.868 81.384,120.542 80.876 C 119.058 78.560,121.130 77.421,123.968 78.993 C 124.536 79.308,125.723 79.909,126.606 80.328 C 127.489 80.747,128.456 81.385,128.755 81.745 C 129.053 82.105,129.702 82.400,130.195 82.400 C 130.688 82.400,131.562 82.769,132.135 83.221 C 132.709 83.672,133.982 84.315,134.965 84.650 C 135.947 84.984,136.964 85.515,137.224 85.829 C 137.485 86.143,137.943 86.400,138.243 86.400 C 138.543 86.400,139.976 87.030,141.427 87.800 C 142.879 88.570,144.299 89.200,144.584 89.200 C 144.869 89.200,145.311 89.452,145.567 89.761 C 145.823 90.069,146.520 90.443,147.116 90.592 C 147.712 90.741,148.489 91.123,148.842 91.441 C 149.195 91.759,150.725 92.644,152.242 93.408 C 157.319 95.966,157.440 95.778,156.808 86.302 C 156.202 77.213,156.300 75.400,157.400 75.400 C 157.919 75.400,158.437 75.891,158.874 76.800 C 159.245 77.570,159.807 78.470,160.122 78.800 C 160.438 79.130,160.980 79.958,161.328 80.641 C 162.680 83.297,163.096 83.388,174.400 83.507 C 186.832 83.636,186.548 83.744,187.190 78.675 C 187.613 75.346,188.176 73.859,188.921 74.107 C 189.677 74.359,191.979 78.481,192.212 80.000 C 192.330 80.770,192.766 82.040,193.180 82.822 C 193.595 83.605,194.062 84.955,194.218 85.822 C 194.374 86.690,194.912 88.300,195.414 89.400 C 195.917 90.500,196.452 92.357,196.605 93.527 C 197.090 97.246,198.935 97.518,199.602 93.969 C 199.826 92.776,200.340 91.349,200.745 90.797 C 201.149 90.246,201.614 88.900,201.778 87.807 C 201.942 86.713,202.414 85.156,202.828 84.346 C 203.241 83.536,203.703 82.094,203.856 81.141 C 204.189 79.059,206.609 73.600,207.198 73.600 C 207.429 73.600,207.791 74.005,208.003 74.500 M167.924 186.772 C 166.688 187.117,165.331 187.715,164.907 188.100 C 164.484 188.485,163.759 188.800,163.298 188.800 C 162.231 188.800,154.314 190.353,154.053 190.613 C 152.821 191.845,158.109 194.133,161.777 193.954 C 163.110 193.890,164.996 194.068,165.968 194.352 C 167.466 194.789,168.077 194.772,169.968 194.243 C 173.440 193.272,175.200 193.970,175.200 196.317 C 175.200 197.098,175.487 198.054,175.838 198.442 C 176.628 199.315,176.083 200.147,173.117 202.600 C 172.053 203.480,170.847 204.494,170.437 204.854 C 169.130 206.002,168.847 214.891,170.025 217.800 C 170.203 218.240,170.361 218.372,170.375 218.094 C 170.389 217.815,171.031 217.286,171.802 216.919 C 172.800 216.442,173.309 215.868,173.570 214.923 C 173.988 213.410,175.774 211.307,177.084 210.784 C 178.125 210.369,181.406 205.994,182.086 204.113 C 182.346 203.393,182.884 202.700,183.280 202.575 C 184.323 202.244,184.699 201.307,184.858 198.637 L 185.000 196.274 182.529 194.237 C 173.148 186.502,171.641 185.732,167.924 186.772 M224.600 186.813 C 222.330 187.282,219.637 189.235,212.776 195.386 C 211.025 196.957,211.008 196.995,211.140 199.283 C 211.279 201.692,211.185 201.535,214.908 205.566 C 216.129 206.888,218.960 210.638,220.297 212.705 C 220.904 213.642,221.711 214.508,222.092 214.629 C 222.472 214.750,223.087 215.362,223.458 215.990 C 225.594 219.607,226.940 217.284,226.696 210.400 C 226.476 204.201,225.688 202.800,222.422 202.800 C 220.706 202.800,219.096 199.686,219.990 198.095 C 220.204 197.713,220.640 196.737,220.958 195.927 C 221.923 193.470,223.444 192.961,226.756 193.986 C 229.177 194.736,229.594 194.764,230.791 194.261 C 231.776 193.846,232.493 193.801,233.529 194.087 C 235.072 194.513,237.004 194.260,237.902 193.515 C 238.220 193.251,239.408 192.666,240.540 192.214 C 244.109 190.791,243.494 189.855,238.800 189.565 C 234.270 189.286,232.436 188.919,231.519 188.110 C 230.638 187.334,226.151 186.493,224.600 186.813 M151.400 195.564 C 149.909 196.086,149.367 196.492,149.269 197.155 C 149.197 197.645,148.702 198.244,148.169 198.487 C 147.636 198.730,147.199 199.125,147.197 199.364 C 147.195 199.604,145.315 201.778,143.020 204.195 C 139.816 207.569,138.752 208.969,138.436 210.221 C 138.210 211.119,137.660 212.184,137.213 212.588 C 136.668 213.082,136.400 213.824,136.400 214.843 C 136.400 216.378,135.711 218.400,135.188 218.400 C 135.032 218.400,134.673 219.255,134.391 220.300 C 134.109 221.345,133.661 222.470,133.396 222.800 C 132.751 223.602,132.000 225.894,132.000 227.060 C 132.000 227.577,131.644 228.356,131.209 228.791 C 130.774 229.226,130.511 229.824,130.624 230.119 C 130.946 230.957,133.151 230.447,133.855 229.372 C 134.324 228.657,134.898 228.413,136.333 228.321 C 138.170 228.202,138.201 228.177,138.241 226.794 C 138.263 226.020,138.404 224.567,138.554 223.565 C 138.780 222.057,138.683 221.559,137.987 220.675 L 137.147 219.607 138.274 218.633 L 139.400 217.659 139.816 219.315 C 140.296 221.230,142.638 222.219,143.842 221.015 C 144.163 220.694,145.038 220.317,145.787 220.176 C 146.535 220.036,147.454 219.582,147.829 219.168 C 148.203 218.754,149.160 218.303,149.955 218.164 C 150.750 218.026,152.037 217.484,152.816 216.960 C 154.376 215.910,157.153 215.256,159.247 215.445 C 159.991 215.512,160.285 215.471,159.900 215.354 C 159.489 215.229,159.200 214.748,159.200 214.189 C 159.200 212.312,156.759 212.378,150.082 214.436 C 147.464 215.244,147.102 215.273,146.553 214.724 C 145.599 213.770,146.604 207.744,147.920 206.524 C 148.676 205.824,148.818 205.395,148.611 204.451 C 148.175 202.465,149.130 200.000,150.335 200.000 C 153.051 200.000,154.000 199.203,154.000 196.920 C 154.000 195.754,153.865 194.814,153.700 194.831 C 153.535 194.848,152.500 195.178,151.400 195.564 M243.462 196.331 C 241.900 198.058,242.859 199.579,245.520 199.595 C 246.765 199.602,247.765 201.963,247.464 204.186 C 247.274 205.592,247.384 205.911,248.321 206.660 C 249.838 207.875,250.386 214.413,249.014 214.939 C 248.321 215.205,243.622 214.116,242.908 213.524 C 241.967 212.743,237.215 212.879,236.753 213.700 C 236.524 214.108,235.890 214.400,235.235 214.400 C 234.600 214.400,233.693 214.804,233.155 215.325 C 232.630 215.834,231.546 216.552,230.748 216.921 C 228.935 217.759,228.094 220.044,229.413 220.550 C 229.821 220.706,230.153 220.451,230.406 219.785 C 230.615 219.235,231.243 218.612,231.803 218.399 C 232.363 218.186,232.922 217.749,233.045 217.427 C 233.169 217.105,234.199 216.540,235.335 216.171 C 236.471 215.803,237.571 215.344,237.780 215.151 C 238.694 214.307,242.143 215.489,243.470 217.101 C 243.729 217.415,244.719 217.847,245.670 218.060 C 246.622 218.274,247.760 218.767,248.200 219.156 C 248.640 219.546,249.765 220.082,250.700 220.348 C 251.635 220.614,252.400 220.986,252.400 221.174 C 252.400 222.229,255.489 220.662,255.957 219.369 C 256.528 217.789,256.806 217.701,257.791 218.790 C 258.457 219.526,258.461 219.647,257.853 220.576 C 257.128 221.681,256.979 223.816,257.600 224.200 C 257.820 224.336,258.000 225.243,258.000 226.216 C 258.000 227.823,258.101 228.006,259.100 228.216 C 260.250 228.458,260.482 228.573,262.044 229.674 C 264.943 231.717,266.212 230.445,264.624 227.088 C 264.061 225.897,263.600 224.725,263.600 224.483 C 263.600 224.240,263.150 223.196,262.600 222.162 C 262.050 221.127,261.600 219.955,261.600 219.556 C 261.600 219.157,261.263 218.509,260.851 218.116 C 260.436 217.719,259.974 216.515,259.814 215.413 C 259.642 214.232,259.135 212.963,258.562 212.282 C 258.033 211.653,257.600 210.783,257.600 210.349 C 257.600 209.095,256.618 207.524,254.741 205.777 C 252.224 203.435,249.200 199.900,249.200 199.299 C 249.200 199.015,248.759 198.582,248.220 198.336 C 247.643 198.074,247.136 197.418,246.988 196.745 C 246.682 195.352,244.572 195.105,243.462 196.331 M153.792 202.706 C 153.229 203.112,152.400 205.076,152.400 206.005 C 152.400 207.752,155.243 208.121,156.291 206.509 C 156.681 205.910,157.540 204.922,158.200 204.315 C 159.850 202.798,155.745 201.300,153.792 202.706 M238.300 202.676 C 237.223 202.957,237.448 203.553,239.347 205.453 C 241.960 208.065,244.207 207.462,243.151 204.431 C 242.515 202.606,240.859 202.007,238.300 202.676 M75.963 206.744 C 74.828 207.636,73.487 210.145,72.831 212.600 C 72.124 215.251,69.279 219.983,68.076 220.512 C 66.699 221.116,66.518 221.378,65.787 223.834 C 65.443 224.988,64.667 226.361,63.991 227.009 C 63.336 227.636,62.800 228.486,62.800 228.897 C 62.800 229.309,62.239 230.158,61.553 230.784 C 59.971 232.229,60.328 232.969,62.468 232.682 C 64.418 232.420,65.136 231.837,66.053 229.770 C 66.450 228.873,67.222 227.936,67.766 227.688 C 68.311 227.440,69.507 226.553,70.423 225.718 C 71.340 224.883,73.183 223.654,74.520 222.987 C 76.225 222.136,77.326 221.240,78.206 219.987 C 79.460 218.202,81.990 216.419,83.286 216.407 C 83.663 216.403,84.158 216.051,84.386 215.625 C 84.615 215.199,85.521 214.446,86.401 213.952 C 87.280 213.457,88.000 212.927,88.000 212.773 C 88.000 212.619,88.973 212.033,90.162 211.470 C 93.784 209.755,93.708 209.405,89.583 208.784 C 87.798 208.516,86.405 208.084,86.113 207.710 C 85.791 207.295,84.578 206.982,82.513 206.781 C 80.801 206.615,78.857 206.357,78.194 206.208 C 77.297 206.007,76.724 206.145,75.963 206.744 M317.511 206.223 C 317.388 206.345,315.822 206.593,314.029 206.774 C 312.093 206.969,310.493 207.350,310.085 207.712 C 309.708 208.047,308.000 208.545,306.289 208.817 C 302.883 209.360,302.724 210.044,305.729 211.227 C 306.428 211.503,307.551 212.133,308.225 212.627 C 308.899 213.122,310.148 213.818,311.001 214.174 C 313.640 215.277,316.772 217.584,317.447 218.922 C 318.460 220.930,319.988 222.336,322.318 223.403 C 323.502 223.944,325.039 224.868,325.735 225.455 C 326.431 226.041,327.583 226.766,328.296 227.064 C 329.140 227.418,329.796 228.095,330.176 229.004 C 330.637 230.107,330.985 230.400,331.832 230.400 C 333.207 230.400,333.050 228.998,331.221 224.957 C 329.475 221.097,329.471 221.091,328.099 220.200 C 327.394 219.742,326.476 218.544,325.953 217.400 C 325.450 216.300,324.821 215.130,324.555 214.800 C 324.289 214.470,323.761 213.120,323.382 211.800 C 322.294 208.014,318.922 204.811,317.511 206.223 M312.940 210.987 C 313.217 211.709,312.580 212.155,311.736 211.831 C 311.230 211.637,311.205 211.476,311.604 210.995 C 312.229 210.242,312.653 210.240,312.940 210.987 M139.686 214.700 C 139.882 215.649,139.579 217.200,139.197 217.200 C 138.750 217.200,138.357 215.377,138.643 214.632 C 138.965 213.793,139.506 213.829,139.686 214.700 M257.443 215.029 C 257.751 216.257,257.048 217.208,256.349 216.509 C 255.841 216.001,256.201 214.000,256.800 214.000 C 257.012 214.000,257.301 214.463,257.443 215.029 M163.092 216.770 C 162.945 217.333,163.188 217.664,163.993 217.997 C 164.600 218.248,165.296 218.892,165.540 219.427 C 166.321 221.143,167.451 220.423,167.011 218.490 C 166.839 217.737,166.295 217.184,165.250 216.700 C 163.370 215.830,163.338 215.831,163.092 216.770 M169.009 220.944 C 168.208 221.529,168.101 222.857,168.599 226.020 C 168.800 227.294,168.693 228.409,168.243 229.734 C 167.162 232.917,167.789 235.541,170.369 238.638 C 170.936 239.319,171.595 240.213,171.834 240.624 C 172.216 241.280,172.358 241.129,173.002 239.385 C 173.406 238.293,173.973 237.118,174.263 236.774 C 174.553 236.429,174.908 235.529,175.052 234.774 C 175.195 234.018,175.465 233.101,175.651 232.736 C 176.063 231.928,175.109 229.483,173.754 227.873 C 173.229 227.249,172.804 226.527,172.808 226.269 C 172.818 225.677,170.278 220.419,169.976 220.408 C 169.854 220.404,169.418 220.645,169.009 220.944 M225.061 222.848 C 224.679 223.921,224.208 224.800,224.015 224.800 C 223.821 224.800,223.446 225.475,223.182 226.300 C 222.918 227.125,222.393 228.160,222.015 228.600 C 220.331 230.564,220.322 235.563,222.000 236.600 C 222.191 236.718,222.632 237.794,222.980 238.991 L 223.613 241.168 225.207 239.439 C 226.083 238.488,226.800 237.408,226.800 237.039 C 226.800 236.670,227.175 235.633,227.634 234.734 C 228.471 233.092,228.451 228.726,227.602 228.201 C 227.427 228.093,227.440 227.328,227.632 226.502 C 228.746 221.704,226.567 218.607,225.061 222.848 M140.702 225.000 C 140.597 225.550,140.666 226.000,140.855 226.000 C 141.045 226.000,141.200 225.550,141.200 225.000 C 141.200 224.450,141.131 224.000,141.047 224.000 C 140.962 224.000,140.807 224.450,140.702 225.000 M145.200 226.020 C 145.200 226.252,144.570 226.704,143.800 227.026 C 142.140 227.719,142.130 227.764,143.343 229.205 C 143.862 229.821,144.403 231.058,144.546 231.952 C 144.923 234.312,146.743 236.211,149.188 236.797 C 150.273 237.057,151.360 237.510,151.603 237.804 C 151.847 238.097,152.711 238.453,153.523 238.593 C 156.146 239.048,158.800 241.404,158.800 243.278 C 158.800 243.675,159.025 244.007,159.300 244.015 C 159.575 244.023,160.309 244.833,160.931 245.815 C 163.405 249.718,168.400 247.932,168.400 243.144 C 168.400 238.831,165.950 235.202,165.400 238.700 C 165.056 240.888,164.319 243.200,163.965 243.200 C 163.469 243.200,163.075 238.902,163.340 236.371 C 163.634 233.559,163.772 233.659,159.135 233.337 C 155.074 233.054,155.362 233.191,150.616 229.297 C 149.206 228.140,147.938 226.835,147.799 226.397 C 147.529 225.547,145.200 225.210,145.200 226.020 M247.943 226.900 C 247.125 228.129,245.716 229.398,242.319 231.964 C 241.043 232.928,240.328 233.121,237.149 233.361 C 232.500 233.712,232.656 233.585,232.969 236.761 C 233.295 240.070,232.600 243.864,231.790 243.192 C 231.175 242.681,230.400 239.424,230.400 237.347 C 230.400 235.351,229.556 235.797,228.732 238.229 C 226.881 243.690,228.040 247.465,231.626 247.663 C 234.470 247.819,234.935 247.580,235.781 245.527 C 236.115 244.717,236.571 243.942,236.794 243.804 C 237.017 243.666,237.200 243.272,237.200 242.929 C 237.200 241.826,240.120 239.306,241.978 238.806 C 242.940 238.547,244.104 238.100,244.564 237.813 C 245.024 237.526,246.319 236.994,247.443 236.632 C 250.038 235.796,250.976 234.750,251.600 232.000 C 251.875 230.790,252.456 229.408,252.892 228.930 C 253.696 228.045,253.573 227.200,252.638 227.200 C 252.355 227.200,251.798 226.840,251.400 226.400 C 250.304 225.189,248.950 225.385,247.943 226.900 M333.374 231.642 C 333.224 231.884,333.563 232.544,334.126 233.108 L 335.151 234.133 335.413 233.089 C 335.823 231.459,334.200 230.306,333.374 231.642 M180.213 252.534 C 179.938 254.583,180.004 255.009,180.758 256.028 C 181.230 256.667,181.868 258.227,182.175 259.495 L 182.733 261.800 182.767 258.143 C 182.792 255.324,182.669 254.435,182.230 254.267 C 181.917 254.147,181.405 253.182,181.093 252.124 L 180.527 250.200 180.213 252.534 M212.863 257.546 C 212.249 259.595,212.279 260.881,212.960 261.813 C 213.718 262.849,214.582 259.861,214.192 257.555 C 213.860 255.585,213.452 255.583,212.863 257.546 M163.606 257.300 C 163.611 258.028,163.686 258.085,164.000 257.600 C 164.501 256.824,164.501 256.400,164.000 256.400 C 163.780 256.400,163.603 256.805,163.606 257.300 M40.870 261.839 C 40.703 263.313,40.755 263.278,38.940 263.111 L 37.400 262.970 38.539 262.480 C 39.165 262.211,39.773 261.625,39.890 261.179 C 40.208 259.962,41.020 260.509,40.870 261.839 M355.444 263.294 C 357.076 263.110,359.016 264.661,357.702 265.099 C 357.474 265.175,355.985 266.135,354.392 267.232 C 351.081 269.513,349.793 269.496,347.813 267.143 C 345.479 264.368,346.557 262.893,350.674 263.230 C 352.375 263.369,354.521 263.398,355.444 263.294 M49.194 264.949 C 49.173 267.799,44.845 268.655,42.959 266.182 C 41.590 264.388,41.940 264.014,45.186 263.801 C 46.567 263.710,47.794 263.540,47.912 263.422 C 48.308 263.026,49.200 264.089,49.194 264.949 M181.800 264.400 C 181.097 265.176,181.101 265.200,181.938 265.200 C 182.533 265.200,182.800 264.953,182.800 264.400 C 182.800 263.960,182.738 263.600,182.662 263.600 C 182.586 263.600,182.198 263.960,181.800 264.400 M213.088 264.384 C 212.925 265.007,213.067 265.200,213.686 265.200 C 214.397 265.200,214.431 265.113,213.962 264.500 C 213.667 264.115,213.398 263.748,213.364 263.684 C 213.330 263.620,213.206 263.935,213.088 264.384 M159.670 266.300 C 159.631 266.575,159.396 266.800,159.147 266.800 C 158.534 266.800,157.397 268.159,156.796 269.610 C 156.525 270.265,156.176 270.800,156.022 270.800 C 155.756 270.800,154.360 273.660,153.077 276.831 C 152.669 277.840,152.100 278.411,151.149 278.767 C 150.407 279.044,149.322 279.525,148.738 279.836 C 148.154 280.146,147.295 280.400,146.828 280.400 C 146.320 280.400,145.838 280.761,145.626 281.300 C 145.431 281.795,144.625 282.800,143.836 283.532 C 142.148 285.099,142.019 286.132,143.400 287.037 C 144.490 287.751,144.771 289.760,143.986 291.226 C 143.758 291.652,143.720 292.000,143.901 292.000 C 144.437 292.000,146.690 296.087,146.952 297.534 C 147.085 298.267,147.533 299.347,147.947 299.934 C 148.361 300.520,148.827 301.585,148.982 302.300 C 149.743 305.812,151.994 300.726,152.014 295.450 C 152.024 292.682,152.214 291.413,152.800 290.200 C 153.355 289.051,153.577 287.723,153.586 285.490 C 153.600 282.391,153.604 282.379,154.746 282.151 C 155.878 281.924,155.894 281.880,156.161 278.346 C 156.481 274.112,156.793 273.180,158.646 270.917 C 159.856 269.441,160.026 268.977,159.893 267.504 C 159.809 266.567,159.708 266.025,159.670 266.300 M235.859 266.674 C 235.523 267.010,236.039 269.347,236.549 269.800 C 238.294 271.348,239.230 273.322,239.716 276.476 C 240.215 279.709,240.270 279.822,241.714 280.600 L 243.198 281.400 243.199 285.365 C 243.200 289.248,244.120 295.903,244.850 297.309 C 245.086 297.764,245.057 298.320,244.768 298.859 C 244.453 299.448,244.442 299.955,244.730 300.550 C 244.956 301.018,245.301 301.929,245.496 302.575 C 246.023 304.323,246.605 304.231,247.175 302.311 C 247.454 301.370,247.820 300.420,247.988 300.200 C 248.157 299.980,248.599 298.865,248.972 297.723 C 249.344 296.580,249.973 295.230,250.368 294.723 C 250.764 294.215,251.286 292.662,251.529 291.271 C 251.772 289.881,252.337 288.149,252.785 287.424 C 254.321 284.939,253.798 282.766,251.527 282.196 C 250.939 282.049,250.372 281.704,250.267 281.431 C 250.091 280.973,247.945 279.831,244.350 278.285 C 243.148 277.768,242.854 277.399,242.629 276.130 C 242.323 274.409,240.444 270.400,239.943 270.400 C 239.763 270.400,239.267 269.715,238.840 268.879 C 238.119 267.465,236.365 266.168,235.859 266.674 M211.467 274.667 C 210.990 275.144,211.179 275.396,212.432 275.950 C 213.802 276.556,214.682 276.113,214.266 275.027 C 214.026 274.401,211.993 274.140,211.467 274.667 M181.200 275.780 C 181.200 277.371,182.279 277.634,183.630 276.372 C 185.173 274.930,185.121 274.800,183.000 274.800 C 181.356 274.800,181.200 274.885,181.200 275.780 M136.800 278.200 C 136.800 279.333,136.952 279.600,137.600 279.600 C 138.611 279.600,138.753 277.421,137.767 277.043 C 136.815 276.677,136.800 276.695,136.800 278.200 M258.100 277.130 C 257.706 277.380,257.720 277.611,258.167 278.223 C 258.792 279.077,259.054 278.986,259.262 277.841 C 259.417 276.992,258.858 276.650,258.100 277.130 M179.667 279.597 C 178.731 281.491,179.249 282.774,180.721 282.209 C 181.021 282.094,181.611 282.000,182.033 282.000 C 183.092 282.000,182.994 281.011,181.844 280.106 C 181.319 279.693,180.813 279.005,180.722 278.577 C 180.593 277.975,180.355 278.206,179.667 279.597 M214.065 279.951 C 213.771 280.138,213.591 280.720,213.665 281.245 C 213.840 282.481,216.496 282.685,216.728 281.481 C 217.004 280.046,215.384 279.116,214.065 279.951 M171.787 280.840 C 171.439 281.939,171.977 282.402,173.100 281.971 C 174.205 281.547,174.252 280.963,173.226 280.414 C 172.176 279.852,172.093 279.876,171.787 280.840 M223.075 281.058 C 222.553 281.580,222.802 282.000,223.633 282.000 C 224.099 282.000,224.397 281.790,224.308 281.525 C 224.113 280.940,223.446 280.688,223.075 281.058 M161.277 281.630 C 161.356 281.867,161.591 282.060,161.800 282.060 C 162.009 282.060,162.245 281.867,162.323 281.630 C 162.402 281.394,162.167 281.200,161.800 281.200 C 161.433 281.200,161.198 281.394,161.277 281.630 M220.819 284.577 C 220.097 285.447,220.547 286.268,221.868 286.490 C 222.491 286.595,223.242 286.752,223.537 286.840 C 224.435 287.107,225.097 285.721,224.393 285.048 C 223.436 284.132,221.410 283.866,220.819 284.577 M172.080 284.795 C 170.242 285.230,170.130 285.461,171.201 286.601 C 172.008 287.460,172.226 287.523,172.769 287.053 C 173.116 286.753,173.895 286.390,174.500 286.246 C 175.242 286.070,175.600 285.727,175.600 285.192 C 175.600 284.324,174.561 284.207,172.080 284.795 M167.417 287.582 C 167.019 288.020,166.349 288.489,165.928 288.623 C 165.022 288.910,163.308 292.561,162.778 295.331 C 162.575 296.393,162.047 297.723,161.604 298.285 C 161.118 298.904,160.800 299.911,160.800 300.833 C 160.800 302.408,158.355 304.578,155.659 305.395 C 155.141 305.552,154.100 306.099,153.346 306.611 C 152.591 307.123,151.774 307.609,151.530 307.690 C 149.908 308.231,150.627 326.863,152.350 328.939 C 152.578 329.215,152.886 330.241,153.035 331.220 C 153.183 332.199,153.709 333.810,154.204 334.800 C 155.007 336.408,156.284 339.124,157.588 342.000 C 159.492 346.197,160.200 346.667,166.380 347.838 C 168.020 348.149,170.050 348.762,170.893 349.201 C 172.937 350.267,174.537 350.208,176.314 349.000 C 177.123 348.450,178.169 348.000,178.637 348.000 C 179.742 348.000,184.447 345.607,185.123 344.701 C 185.410 344.315,185.877 344.000,186.159 344.000 C 186.442 344.000,187.107 343.640,187.637 343.199 C 190.934 340.457,191.549 340.000,191.939 340.000 C 192.336 340.000,193.660 338.919,195.842 336.813 C 196.988 335.707,199.058 335.749,200.204 336.900 C 200.697 337.395,201.763 338.250,202.574 338.800 C 204.185 339.893,206.848 341.912,208.363 343.188 C 208.893 343.635,209.546 344.000,209.814 344.000 C 210.083 344.000,210.549 344.299,210.851 344.663 C 211.153 345.028,212.030 345.616,212.800 345.970 C 213.570 346.324,214.650 346.905,215.200 347.262 C 215.750 347.618,216.857 348.025,217.659 348.166 C 218.462 348.306,219.599 348.798,220.185 349.260 C 221.335 350.164,224.610 350.154,225.173 349.244 C 225.324 349.000,226.966 348.513,228.823 348.162 C 230.681 347.810,232.740 347.280,233.400 346.982 C 234.060 346.685,235.103 346.337,235.717 346.209 C 236.332 346.081,236.930 345.667,237.046 345.288 C 237.162 344.910,237.427 344.330,237.634 344.000 C 237.841 343.670,238.374 342.680,238.819 341.800 C 239.263 340.920,239.888 339.750,240.208 339.200 C 240.527 338.650,240.791 337.920,240.794 337.578 C 240.797 337.235,241.240 336.359,241.777 335.631 C 242.374 334.823,242.858 333.473,243.022 332.165 C 243.169 330.988,243.530 329.824,243.825 329.579 C 244.120 329.335,244.485 328.294,244.637 327.267 C 244.789 326.240,245.127 324.770,245.387 324.000 C 245.758 322.902,245.270 308.589,244.832 307.738 C 244.681 307.444,241.177 305.660,240.374 305.468 C 239.809 305.332,238.968 304.902,238.503 304.511 C 238.039 304.120,237.106 303.493,236.430 303.119 C 235.347 302.519,235.200 302.227,235.200 300.680 C 235.200 299.537,234.938 298.621,234.452 298.060 C 234.040 297.585,233.490 296.073,233.230 294.698 C 232.186 289.191,230.124 287.056,226.800 288.038 C 226.250 288.201,225.305 288.442,224.700 288.575 C 224.095 288.707,223.600 289.051,223.600 289.340 C 223.600 289.629,223.151 290.105,222.603 290.399 C 222.054 290.692,221.330 291.353,220.993 291.866 C 220.535 292.565,220.011 292.800,218.906 292.800 C 217.799 292.800,217.224 293.058,216.607 293.832 C 216.155 294.399,215.172 294.989,214.422 295.142 C 213.673 295.295,213.000 295.599,212.928 295.817 C 212.749 296.354,215.909 297.966,217.393 298.096 C 218.571 298.199,218.710 298.403,219.454 301.131 C 219.626 301.762,221.153 300.052,222.144 298.120 C 222.505 297.416,223.029 296.696,223.310 296.520 C 223.590 296.344,224.134 295.705,224.519 295.100 C 225.368 293.765,226.037 293.718,227.370 294.900 L 228.386 295.800 227.721 297.800 C 227.337 298.953,226.154 300.868,224.928 302.323 C 223.757 303.710,222.800 305.015,222.800 305.223 C 222.800 305.430,222.526 305.600,222.190 305.600 C 221.855 305.600,221.406 306.059,221.193 306.619 C 220.684 307.958,218.625 308.798,214.489 309.355 L 211.178 309.800 207.747 313.397 C 204.486 316.816,202.400 319.863,202.400 321.208 C 202.400 321.546,202.085 322.267,201.700 322.811 C 201.315 323.355,200.636 324.700,200.192 325.800 C 199.020 328.698,197.084 328.366,195.564 325.006 C 195.165 324.123,194.576 322.950,194.257 322.400 C 193.937 321.850,193.476 320.650,193.232 319.734 C 192.892 318.456,191.857 317.104,188.795 313.934 L 184.802 309.800 181.701 309.344 C 177.934 308.791,175.630 307.959,175.077 306.953 C 174.850 306.539,173.884 305.427,172.932 304.481 C 171.979 303.536,171.200 302.605,171.200 302.412 C 171.200 302.219,170.731 301.505,170.159 300.824 C 169.000 299.447,167.907 296.308,168.263 295.379 C 168.859 293.828,171.332 293.726,171.811 295.233 C 171.949 295.669,172.453 296.444,172.931 296.956 C 173.409 297.468,174.308 298.635,174.930 299.549 C 176.064 301.218,176.800 301.397,176.800 300.005 C 176.800 298.763,177.924 298.000,179.754 298.000 C 181.104 298.000,181.677 297.763,182.563 296.839 L 183.675 295.678 182.738 295.405 C 180.716 294.816,175.350 291.968,174.458 291.011 C 173.940 290.455,173.374 290.000,173.201 290.000 C 173.028 290.000,172.775 289.555,172.639 289.012 C 172.417 288.129,172.277 288.066,171.332 288.426 C 170.433 288.768,170.112 288.674,169.206 287.806 C 168.144 286.788,168.136 286.787,167.417 287.582 M41.738 292.389 C 41.658 294.022,41.467 294.182,39.600 294.182 C 37.764 294.182,37.718 294.147,37.539 292.606 C 37.419 291.579,37.595 291.318,38.800 290.737 C 40.654 289.844,41.830 290.505,41.738 292.389 M359.122 290.837 C 360.485 291.297,361.600 291.797,361.600 291.948 C 361.600 292.684,360.174 294.097,358.674 294.847 C 357.753 295.306,356.710 296.049,356.356 296.497 C 355.227 297.926,353.806 292.657,354.814 290.774 C 355.340 289.791,356.057 289.801,359.122 290.837 M193.360 295.906 C 190.783 297.627,194.000 299.042,199.400 298.563 C 203.019 298.242,203.424 298.103,203.916 297.024 C 204.570 295.589,204.019 295.437,200.339 296.034 C 197.849 296.439,196.969 296.448,196.375 296.077 C 195.521 295.544,194.029 295.459,193.360 295.906 M340.157 310.233 C 340.291 310.581,340.400 311.267,340.400 311.757 C 340.400 312.285,340.891 313.012,341.600 313.537 C 342.260 314.025,342.800 314.736,342.800 315.118 C 342.800 315.500,343.160 316.484,343.600 317.304 C 344.537 319.053,344.628 320.338,343.836 320.641 C 343.072 320.935,340.808 319.720,340.552 318.879 C 340.438 318.506,339.817 316.940,339.172 315.400 C 337.868 312.289,337.835 312.087,338.390 310.626 C 338.826 309.479,339.786 309.265,340.157 310.233 M57.847 311.447 C 58.205 312.872,57.691 314.994,56.790 315.809 C 56.354 316.204,55.807 317.231,55.575 318.092 C 55.299 319.118,54.371 320.451,52.877 321.968 C 51.625 323.240,49.880 325.216,49.000 326.360 C 45.992 330.270,42.515 333.730,41.850 333.474 C 40.548 332.975,40.592 331.199,41.938 329.851 C 44.866 326.920,46.144 325.278,47.008 323.334 C 47.513 322.197,48.312 321.061,48.784 320.808 C 49.256 320.556,50.240 319.416,50.970 318.275 C 51.700 317.134,53.041 315.435,53.949 314.500 C 54.857 313.564,55.600 312.517,55.600 312.173 C 55.600 310.130,57.373 309.557,57.847 311.447 M73.809 332.427 C 73.985 332.982,73.735 333.740,73.049 334.730 C 72.486 335.541,71.820 336.797,71.568 337.520 C 71.201 338.571,70.576 339.104,68.455 340.174 C 66.995 340.909,64.528 342.577,62.974 343.880 C 57.769 348.242,53.600 350.030,53.600 347.899 C 53.600 347.432,59.315 341.852,60.800 340.869 C 62.644 339.649,66.375 336.764,66.618 336.371 C 66.884 335.940,70.943 332.863,72.200 332.139 C 73.351 331.476,73.516 331.506,73.809 332.427 M323.400 332.000 C 323.536 332.220,323.958 332.400,324.337 332.400 C 324.717 332.400,325.346 332.939,325.735 333.598 C 326.633 335.118,329.691 338.005,331.284 338.837 C 332.294 339.365,332.386 339.520,331.819 339.737 C 330.680 340.174,328.626 340.033,327.789 339.460 C 327.355 339.163,326.496 338.797,325.880 338.647 C 325.025 338.439,324.576 337.929,323.980 336.487 C 323.551 335.449,323.020 334.287,322.800 333.905 C 322.014 332.541,322.595 330.697,323.400 332.000 M192.199 347.172 C 190.439 347.340,188.433 347.769,187.741 348.127 C 187.050 348.485,185.733 348.897,184.815 349.044 C 183.897 349.191,182.902 349.555,182.603 349.854 C 181.880 350.577,180.184 351.200,178.937 351.200 C 178.381 351.200,177.494 351.540,176.967 351.955 C 176.439 352.370,175.330 352.836,174.503 352.991 C 173.677 353.146,172.235 353.621,171.300 354.046 C 170.365 354.472,169.093 354.921,168.474 355.045 C 167.025 355.335,166.411 356.671,165.236 362.095 C 165.011 363.137,164.547 364.528,164.206 365.188 C 163.866 365.847,163.474 367.244,163.337 368.293 C 163.200 369.342,162.850 370.672,162.560 371.249 C 161.659 373.040,163.974 373.442,166.823 371.988 C 171.019 369.848,174.306 370.317,173.884 372.995 C 173.780 373.658,173.902 376.090,174.156 378.400 C 174.696 383.326,175.346 383.924,177.549 381.524 C 178.217 380.796,179.574 379.309,180.563 378.221 C 182.659 375.916,184.000 376.264,184.000 379.115 C 184.000 379.880,184.346 381.067,184.770 381.753 C 185.193 382.439,185.761 383.881,186.032 384.958 L 186.524 386.917 187.362 385.358 C 190.850 378.872,192.954 377.279,194.174 380.200 C 194.496 380.970,194.945 381.600,195.171 381.600 C 195.398 381.600,195.951 382.320,196.400 383.200 C 197.432 385.224,198.848 385.414,199.588 383.629 C 199.855 382.985,200.437 382.130,200.882 381.729 C 201.328 381.328,201.848 380.590,202.040 380.090 C 202.833 378.016,205.199 378.665,206.457 381.302 C 209.402 387.474,209.538 387.586,210.199 384.400 C 210.358 383.630,210.754 382.699,211.078 382.331 C 211.403 381.963,211.767 380.883,211.888 379.931 C 212.434 375.647,213.178 375.738,218.167 380.700 C 221.586 384.100,221.829 383.880,222.155 377.100 C 222.360 372.838,222.576 371.289,223.010 370.960 C 223.790 370.367,227.725 370.988,229.712 372.017 C 232.366 373.391,234.823 373.018,233.765 371.402 C 233.438 370.904,232.992 369.383,232.773 368.023 C 232.554 366.662,232.020 364.888,231.587 364.081 C 231.154 363.273,230.800 362.006,230.800 361.266 C 230.800 357.009,228.359 354.704,222.212 353.156 C 221.339 352.936,220.079 352.422,219.412 352.013 C 218.745 351.605,217.356 351.146,216.324 350.993 C 215.283 350.840,214.143 350.379,213.762 349.958 C 213.385 349.541,212.658 349.200,212.147 349.200 C 211.636 349.200,210.064 348.766,208.653 348.235 C 205.718 347.130,197.921 346.626,192.199 347.172 M329.383 369.972 C 329.509 370.177,329.446 370.448,329.243 370.574 C 328.721 370.896,327.558 370.391,327.826 369.958 C 328.116 369.489,329.090 369.498,329.383 369.972 " stroke="none" fill="#fafafa" fill-rule="evenodd"></path></g></svg>